/* XPM */
static char *_ef00b81ef264517838e594d42f374e5JHqVhz7U6qQDE6rq[] = {
/* columns rows colors chars-per-pixel */
"64 64 246 2 ",
"   c None",
".  c #040405",
"X  c #04050B",
"o  c #050A0B",
"O  c #0B0C0C",
"+  c #060807",
"@  c #120D0B",
"#  c #180907",
"$  c #0E110E",
"%  c #15120E",
"&  c #1B120E",
"*  c #0A0E11",
"=  c #130C11",
"-  c #0D1113",
";  c #0D1218",
":  c #131213",
">  c #1A1413",
",  c #1B1A14",
"<  c #1B1C1B",
"1  c #161819",
"2  c #260B02",
"3  c #25160D",
"4  c #201513",
"5  c #231A14",
"6  c #2A1C15",
"7  c #221C1A",
"8  c #2A1A1A",
"9  c #341D15",
"0  c #351D1B",
"q  c #321406",
"w  c #26231A",
"e  c #34241B",
"r  c #392418",
"t  c #213319",
"y  c #2A1F27",
"u  c #1D222B",
"i  c #282625",
"p  c #332A24",
"a  c #3B2B25",
"s  c #352727",
"d  c #39342B",
"f  c #3C3936",
"g  c #2E3532",
"h  c #1A1F1C",
"j  c #541A14",
"k  c #47291A",
"l  c #4B361A",
"z  c #563119",
"x  c #432C25",
"c  c #482A24",
"v  c #483428",
"b  c #5A3D2B",
"n  c #543827",
"m  c #473A33",
"M  c #573E34",
"N  c #582B23",
"B  c #663A2B",
"V  c #6F312A",
"C  c #7A111D",
"Z  c #59442B",
"A  c #46453B",
"S  c #5B4434",
"D  c #674729",
"F  c #664836",
"G  c #754B35",
"H  c #6D5538",
"J  c #765638",
"K  c #6F4F2C",
"L  c #766C34",
"P  c #2E3342",
"I  c #513B4B",
"U  c #7B314C",
"Y  c #3D4148",
"T  c #454849",
"R  c #594A46",
"E  c #5B5244",
"W  c #474956",
"Q  c #555655",
"!  c #52525A",
"~  c #654E43",
"^  c #6B564A",
"/  c #775948",
"(  c #745554",
")  c #5A6257",
"_  c #7A6349",
"`  c #7B6259",
"'  c #686752",
"]  c #565968",
"[  c #4F4C66",
"{  c #5B6267",
"}  c #686869",
"|  c #776B66",
" . c #777672",
".. c #6E7273",
"X. c #645C69",
"o. c #911115",
"O. c #8D2A2F",
"+. c #B6323B",
"@. c #951221",
"#. c #C22023",
"$. c #864833",
"%. c #865639",
"&. c #91603B",
"*. c #AE324F",
"=. c #8C5C49",
"-. c #836648",
";. c #896A59",
":. c #9B755B",
">. c #946E55",
",. c #AC7050",
"<. c #87736A",
"1. c #897570",
"2. c #90726C",
"3. c #B57163",
"4. c #955672",
"5. c #D14E54",
"6. c #D55E62",
"7. c #7D8271",
"8. c #87887B",
"9. c #988B78",
"0. c #B28F71",
"q. c #B68259",
"w. c #CC8E66",
"e. c #D1A477",
"r. c #EB817D",
"t. c #E8C77F",
"y. c #777986",
"u. c #6B7597",
"i. c #707085",
"p. c #6E78A5",
"a. c #515E84",
"s. c #8B758C",
"d. c #B66784",
"f. c #788694",
"g. c #788AAC",
"h. c #7B9AD9",
"j. c #768FC7",
"k. c #759AE3",
"l. c #7CA6F5",
"z. c #898A89",
"x. c #958889",
"c. c #888A99",
"v. c #979896",
"b. c #909090",
"n. c #A9978B",
"m. c #97A19A",
"M. c #AFA494",
"N. c #858BA5",
"B. c #8B98AA",
"V. c #9399A6",
"C. c #8A9BB9",
"Z. c #969BB7",
"A. c #898ABC",
"S. c #99A1AE",
"D. c #8DA2BA",
"F. c #98A7BA",
"G. c #A8A7A7",
"H. c #A7ABBB",
"J. c #A6B3BD",
"K. c #B7B6BB",
"L. c #B2AFA4",
"P. c #BD9CB0",
"I. c #D0AD8F",
"U. c #CE94A6",
"Y. c #D29BA7",
"T. c #DBC396",
"R. c #F2CC97",
"E. c #CCCDB6",
"W. c #FBD9A7",
"Q. c #E8CEB0",
"!. c #FBE2A6",
"~. c #FAE8B9",
"^. c #FFF2BB",
"/. c #879BC6",
"(. c #859DD9",
"). c #929AC8",
"_. c #8CA2CC",
"`. c #8DA1C6",
"'. c #99A8C7",
"]. c #9DB2CB",
"[. c #8BA6D9",
"{. c #94ADDB",
"}. c #96A9D7",
"|. c #97B1D8",
" X c #A4AECD",
".X c #A8ACC5",
"XX c #A6B3CB",
"oX c #B8B6C9",
"OX c #A4ADD3",
"+X c #ACBBD4",
"@X c #ACBDDB",
"#X c #A7B5D5",
"$X c #B8BBD5",
"%X c #B2AFD2",
"&X c #8AA7E2",
"*X c #95ABE2",
"=X c #91B2F1",
"-X c #A4B7E3",
";X c #A9B3E1",
":X c #829DE6",
">X c #C3BCC6",
",X c #CFBED0",
"<X c #ABC2DC",
"1X c #B4C3DC",
"2X c #B8C6D8",
"3X c #BDC0C6",
"4X c #BDCAE2",
"5X c #A9C8F9",
"6X c #ADC9F4",
"7X c #C7C3CB",
"8X c #C3C3DC",
"9X c #CAC9D7",
"0X c #D2CBD5",
"qX c #D5D4DB",
"wX c #D9D7D8",
"eX c #CED5D4",
"rX c #EBDCD5",
"tX c #FBE8C4",
"yX c #FEF4C5",
"uX c #EEEDD4",
"iX c #C7CBE3",
"pX c #CBD3E8",
"aX c #D3D5E9",
"sX c #DDDCEB",
"dX c #D6D7E5",
"fX c #D7DCF4",
"gX c #C1CFF5",
"hX c #E5D9EB",
"jX c #DDE3EB",
"kX c #DAE5F5",
"lX c #E4E3EC",
"zX c #EBECEE",
"xX c #E3E4E8",
"cX c #E2E4F2",
"vX c #EBEDF4",
"bX c #E5EAF4",
"nX c #F1EFF4",
"mX c #F2EFF8",
"MX c #EDF2F7",
"NX c #F4F4F5",
"BX c #F4F4FA",
"VX c #F9F7FC",
"CX c #F5F9FC",
"ZX c #FCFCFD",
"AX c #F9FAF6",
"SX c #FAF7ED",
/* pixels */
"                                                      u : < i W                                                                 ",
"                                                  P > 4 a 7 > m W                                                               ",
"                                                P > * % 5 e c j 0 f                                                             ",
"                                              P 4 > + @ n &.3.,.B 2 x R                                                         ",
"                                              > 5 @ * s F =.w.R.R.T.D r B                                                       ",
"                                            u + a e 4 x m F ,.e.e.I.Q.3 c _ [                                                   ",
"                                            > O 8 F N p m m n k 3 :.tXn.# =.9.x.J.                                              ",
"                                          u @ O 7 k b 7 8 x ~ a 6 v >.^.' & G x.).                                              ",
"                                        a.: @ . @ k F s & 2 I.^ # k w.^.uX% + / H.X.                                            ",
"                                        P > : X = 9 F s % & ~ ^.I.,.w.~.yXE 0 r 2.                                              ",
"                                        s > * + o 6 z a 7 e k 3.T.D j 3.^.9.> 9 c                                               ",
"                                        i > : + . 8 a x a x r j $.>.n j e.R.> e B =.                                            ",
"                                      W , * : . O > @ 5 e c 6 0 V w.0.2 ,.W.v v n B                                             ",
"                                      Y & : O . + - O O 5 9 9 k S q.I.n.&.W.m 6 x n =.                                          ",
"                                    g.i : $ : . + @ O = 3 9 # 9 b V 3.tXR.~.p > 8 a G                                           ",
"                                    N.1 % O = + + * O & 9 F v 8 k k $.R.yXQ.$ > a 0 n >.                                        ",
"                                    P , $ + : O . O + & k G k 0 k B >.I.!./ . % c a v F 1.                                      ",
"                                    I , O O : @ + O . & c c n 8 r n B D K n e + 8 s 8 e 1.Z.                                    ",
"                                    f 7 O O * : + + o > k B $.e 6 l n l n D 7 . 1 1 4 x v.K.                                    ",
"                                  { s 1 @ O O 1 + o . = r $.N G 9 3 l Z F m , : O > 8 0 1.x.                                    ",
"                                  W < , O O O = O + O + 3 $.n r n @ : w g , % < 7 y x 9 <.1.                                    ",
"                                  p w h : O + : O + O + 8 z B N b e $ 1 , t $ + m | 2.n.hX                                      ",
"                                  p e w O = @ : % . + : : @ G V D D d t % $ * 1 i R m dXZX                                      ",
"                                  w e 3 @ = : : 1 O o 7 8 & v ;.G D S l r 6 8 7 > i L.ZXZXvXCX                                  ",
"                                  m 4 w % > % @ % 7 - 3 J n # [ u.D b n Z v r a d E x.SXZXAXBXZXAX                              ",
"                                  i s d p p : : $ > & e N D B s j...B b S b k d Q } 8.L.ZXAXcXVXZXZX                            ",
"                                  } Y i m i , w > & & k k V B q ] /.~ F F F R g.W } K.H.9XBXBXAXBXZXCX                          ",
"                                  '.V. .m Q 6 p 7 @ = k K k x V x u.y.~ ~ S _.s.O.oX.XA.$XVXBXBXlXNXCX                          ",
"                                &X}.c.z. .8.7.) f 7 t T R W ! j ~ ! p.~ M V.P.o.U.iX9XbXNXbXbXmXlXcXAX                          ",
"                              ).[.Z.b.v.m.z.S.S.z.} }  .f.g.p.j ( u.s.i.A.%X#.6.MXMXkXiX9XdXmXVXBXzXVX                          ",
"                            #X_.).v.8.z.G.z.S.`.D.B.g.B.D.C.(.I C j.g..X5X*.6.ZXxXdXpXsXBXZXAXVXvXNXAX                          ",
"                            :X/.N.Z. . .v.v.7.+X`.`.`._.`.[.h.u.o.).h.aX>X5.rXdXbXvXVXAXVXvXzXNXlXNXZX                          ",
"                          }.:X/.c.Z.8.<.8.M.  .X].}.{.[.h.{.h.j.C s.=X%X*.rXZXsXbXzXvXMXBXZXVXNXoXvXZXzX                        ",
"                          [./.(.c.c.z.8.v.m.    ].|.|.*X|.|.|.l.O.4.fX*.Y. XlXBXBXZXVXVXZXZXZX0XK.NXZXNX                        ",
"                        '.h.g.f.c.c.b.v.G.    J.+X].|.*X=X-X*X=Xs.5.d.U.kXiXOXkXMXBXVXBXZXZXZX7XoXlXZXwX                        ",
"                        }.k.k.j.u.z.G.7X      J.+X#X|.|.{.|.|.h.p.*.#.hX}.9XfX1XkXBXAXCXAXZXzX7X7XwXZXzX                        ",
"                        _.=Xl.l.[.Z.oX        $X#X].'.`._._.[.[.j.@.6.fX{.OXfX%XpXkXBXCXZXZXwX>XqX9X0XSX                        ",
"                        &X/.{ ! ] Z.          $XXXJ.'.}._.C.C.D.N.@.U.;X'. XfXpXiXaXjXmXBXZX7XK.0XK.7XNX                        ",
"                        v.J H A b `           @XXXH.F.].`.D.C.B.N.4.9XZ.Z.).%XvXkXcXbXzXVXnXP.oX7XoX0XNX                        ",
"                      [.| G / F S <.          @X%XJ.m.H.'.F.Z.Z.A.<.,X%X.X#X.X8XMXcXvXNXNXwXb.>X7X7X7XNX                        ",
"                      D.m.J -.^ M `         .X#X X XG.H.}.F.F.'.'.F.$XiXiX$X$X%XcXBX0XxXmX    ,X7X9X7XnX                        ",
"                          ^ _ ' R E x.      %X*X}.OXH. X}.].+X<XXXH.1X1X1XiX2X$XdXZXqXqXVX    0XqX0X7XxX                        ",
"                          l _ _ ^ R |       OX&X[.'. X.X.X].<X+X@X2X1X@X$XdXgX$X9XVXxXwXBX    K.7XwXzXnXNX                      ",
"                            H -.>.` }       }.&X(.}.'. X X#X<X@X$X1X1X1X$XsXaX$X9XBXzXxXZX    H.oX,X7XxXBX                      ",
"                              >.>.2.|       A.{.h.&X}.%XXX#X<XD.`.'.].].2XjXaX,XdXMXBXvXNX    .X.XiXlXzXzX                      ",
"                              -./ ;.;.`     /.[.(.(.&XOXH.@X@X#XXX<XS.XXiXxXaXiXdXAXAXBXuX    3XhXVXSXNXvX                      ",
"                              L / / ;.` ( i.h.(.[.(.&X;X@X@X].].].].B.F.pXsXdX$XdXCXAXZX3X  xXZXZXZXVXnXuX                      ",
"                                J J ( ^ ( R p.k.&X[.:X*X-X<X].'.F.'.<X].pXlXsX,XdXCXZXZX  oXZXZXZXZXZXNXrX                      ",
"                                K Z K H ` ^ u.=X=X[.&X&X-X<X<X4X+X2X2X<XaXcXaX8XjXVXAXZX2XhXtX~.rXZXAXZX                        ",
"                                L Z F S ( S ] 5X=X&X&X&X-X<X<X1X4X2X2X2XaXfXaX9XcXVXAXZXhXQ.~.^.T.wXNXMX                        ",
"                                  K Z S F m 2 ..5X=X&X*X<X<X<X1XpXpXiX2XpXaXiXaXvXVXZXZXrX~.yX!.t.9.MXjX                        ",
"                                  K F D H Z e @ { 5X=X=X-X<X<X2XpXpXiX2XbXaXsXfXjXVXSXuXuXI.Q.!.w.  wX                          ",
"                                    Z l Z Z e @ . Y @X5X5XgXL.L.E.MXCXvXAXMXjXqXL.Q.Q.W.^.T.M.                                  ",
"                                    Z l l S v d o o 1 i.N...) ' ' T M.wXeXeXL.>.e.W.R.R.~.R.                                    ",
"                                      Z l Z v , * O . . . . . X + . + A <.2.J e.T.w.I.r.t.R.                                    ",
"                                      Z l k l : ; O O * 1 * O O + o . % G D J q.-.J %.>.e.                                      ",
"                                      A v l p * ; ; * * $ $ $ o + . & =.%.D H H H K D K 9.                                      ",
"                                      i 1 w X * - * * - O $ : o . w =.F 3 H _ J K K K Z b.                                      ",
"                                      h ; o * * - - ; * O o $ $ o < a o X i J J K Z A ) z.                                      ",
"                                      1 - * * * $ * - * $ - 1 o o + o - O + O , , o g Q ..                                      ",
"                                      ; * * * o o $ $ o $ $ : $ * * ; $ O O o o * g ..Q { E.                                    ",
"                                      ; * * * * $ o O o o o : $ $ o * $ - O - o t { ! { f.3X                                    ",
"                                    t * * * o o * ; - - o O o + o o $ $ $ $ - - h i Y Q T m.                                    ",
"                                    t ; ; - * o o * - * o o $ + $ o o o $ - $ - - h A Y Q 7.                                    "
};
