/* XPM */
static char *_a3a9d5595284ffc81f4518d74db1f24lFljRT7aB7XBxg9M[] = {
/* columns rows colors chars-per-pixel */
"64 64 217 2 ",
"   c None",
".  c #000000",
"X  c #080707",
"o  c #090807",
"O  c #090708",
"+  c #0C0B0B",
"@  c #070808",
"#  c #100E0D",
"$  c #110C07",
"%  c #0F100E",
"&  c #11110E",
"*  c #0E0E11",
"=  c #100F10",
"-  c #0F1013",
";  c #131314",
":  c #191615",
">  c #1B1916",
",  c #151619",
"<  c #181719",
"1  c #17181C",
"2  c #1B1B1B",
"3  c #211B16",
"4  c #221E1B",
"5  c #1F201E",
"6  c #24201E",
"7  c #29221C",
"8  c #37281D",
"9  c #1D1E21",
"0  c #201F22",
"q  c #1F2024",
"w  c #1F2328",
"e  c #232224",
"r  c #2A2523",
"t  c #2E2924",
"y  c #25252A",
"u  c #28272C",
"i  c #26282C",
"p  c #2A2B2D",
"a  c #352B24",
"s  c #322D2B",
"d  c #3E2E24",
"f  c #36312D",
"g  c #3B322D",
"h  c #3C3125",
"j  c #2C2D32",
"k  c #2F2F3A",
"l  c #342F32",
"z  c #2F3139",
"x  c #2F3035",
"c  c #333234",
"v  c #3B3533",
"b  c #3D3935",
"n  c #33343B",
"m  c #3A363A",
"M  c #36383C",
"N  c #3C3B3C",
"B  c #42342B",
"V  c #4A392B",
"C  c #523D2C",
"Z  c #413734",
"A  c #443C35",
"S  c #433D3B",
"D  c #493D3A",
"F  c #4B3D33",
"G  c #402E22",
"H  c #5A402F",
"J  c #45423D",
"K  c #4B423C",
"L  c #4B4135",
"P  c #534132",
"I  c #594436",
"U  c #52443C",
"Y  c #59493C",
"T  c #634D3C",
"R  c #634B36",
"E  c #6C523D",
"W  c #3C3C42",
"Q  c #3D3F4A",
"!  c #363842",
"~  c #423E42",
"^  c #3E4044",
"/  c #3E414B",
"(  c #444244",
")  c #4B4443",
"_  c #4D4945",
"`  c #44454B",
"'  c #4B464C",
"]  c #4C4B4C",
"[  c #47484D",
"{  c #514643",
"}  c #554A44",
"|  c #5B4D44",
" . c #544C4B",
".. c #5A4E4A",
"X. c #55514D",
"o. c #5B514D",
"O. c #5A5146",
"+. c #464953",
"@. c #4B4C53",
"#. c #494A56",
"$. c #534E52",
"%. c #584F53",
"&. c #4D5157",
"*. c #545354",
"=. c #5C5453",
"-. c #5C5955",
";. c #54545A",
":. c #5C555A",
">. c #5C5A5C",
",. c #57585E",
"<. c #4F504E",
"1. c #614E43",
"2. c #655344",
"3. c #68584A",
"4. c #735B48",
"5. c #625653",
"6. c #645955",
"7. c #625759",
"8. c #645C5C",
"9. c #6B5C57",
"0. c #785F56",
"q. c #78624E",
"w. c #6B615C",
"e. c #68615A",
"r. c #74645C",
"t. c #786558",
"y. c #565A64",
"u. c #5C5C63",
"i. c #585C67",
"p. c #4F5664",
"a. c #625F65",
"s. c #5F6268",
"d. c #5E6572",
"f. c #646363",
"g. c #6B6463",
"h. c #62646B",
"j. c #6C6B6B",
"k. c #6B676A",
"l. c #716561",
"z. c #746A63",
"x. c #7A6E65",
"c. c #736D6C",
"v. c #7B6D6B",
"b. c #7C726C",
"n. c #75726D",
"m. c #636771",
"M. c #6B6D73",
"N. c #676C76",
"B. c #726C73",
"V. c #6E7279",
"C. c #747272",
"Z. c #7C7472",
"A. c #737679",
"S. c #7C7B7B",
"D. c #797976",
"F. c #836955",
"G. c #83726B",
"H. c #8B776A",
"J. c #8C7C74",
"K. c #8A7D7B",
"L. c #847976",
"P. c #947E76",
"I. c #8C756B",
"U. c #84817B",
"Y. c #8C817B",
"T. c #998479",
"R. c #A38B7D",
"E. c #AB8F7F",
"W. c #777C83",
"Q. c #7E8286",
"!. c #838485",
"~. c #8A8C8B",
"^. c #8A8884",
"/. c #948B83",
"(. c #958C88",
"). c #9B948C",
"_. c #999188",
"`. c #878C93",
"'. c #949594",
"]. c #9B9894",
"[. c #8F908D",
"{. c #A88F81",
"}. c #AB9484",
"|. c #A3958B",
" X c #A69487",
".X c #B59B88",
"XX c #A69D96",
"oX c #9FA29A",
"OX c #AAA399",
"+X c #BAA898",
"@X c #9C9FA0",
"#X c #AAABA5",
"$X c #B9B3AA",
"%X c #B8B8B3",
"&X c #B4AFA9",
"*X c #C5AB98",
"=X c #C8B7A8",
"-X c #C8BDB2",
";X c #D0BFAE",
":X c #BEC0BD",
">X c #CDC2B4",
",X c #CAC4B9",
"<X c #D5C2B2",
"1X c #D1C9BD",
"2X c #DCCAB6",
"3X c #D9C4AE",
"4X c #E3D0BF",
"5X c #D3CCC3",
"6X c #DACFC2",
"7X c #DBD3C5",
"8X c #D7D2CA",
"9X c #DED9CC",
"0X c #D9D4CA",
"qX c #CCC9C2",
"wX c #E3D8C6",
"eX c #E1DFD6",
"rX c #EFE5D3",
/* pixels */
"                                                              n j p j                                                           ",
"                                                    W ` ( ( ^ b ^ N b M c j j                                                   ",
"                                            ^ ( N b ) K A g A h B L L L K _ J ^ (                                               ",
"                                        [ N b Z L 2.4.T P I I P P B h 8 h B K O.X.[ ]                                           ",
"                                      ] K | q.q.4.T Y _  .5.8.w.8.7.o.K b 8 7 8 F U  .X.;.                                      ",
"                                    *.O.4.F.2.U 6.J.OX>X1X7X7X5X7X0X7X1X$X/.8.b 8 7 B 2.-.>.                                    ",
"                                w. .3.F.1.| Z.$X1X8X:X@X!.A.M.m.M.A.!.'.&X5XwX-XK. .a d C K -.m.                                ",
"                            ' f.O.2.q.{ b.>X9X%X!.s./ z k y w e e y p z ^ &.A.%XeX1XK.K B 8 8 J u.                              ",
"                          ( e.3.T Y %.=XwX%XV./ j 0 1 , , 1 1 1 1 1 9 9 q y i Q >.oX9X=X>.Z C P -.k.                            ",
"                    : 5 ` -.3.E D B.wX,XQ.#.j 9 9 1 - * * + * ; - - ; ; , 9 9 w p N j.,X2Xn.v H 4.n.A.                          ",
"                  : 2 J 6.Y R b !.rX#Xs.Q 9 9 1 * * * * + + o o + + + + + - , 9 q w x <.OX9XY.n H 4.U.A.                        ",
"                  ; c X.| Y S U.rX#Xi.k 9 1 - - * + + + * + o O + + + + + + * - , q i i b ^.4XY.s R t.b.                        ",
"                1 4 S O.T D f.rX#Xd.k 9 2 , - + + + + o @ X X @ @ @ @ o o o + + % , q i p b ).4Xc.c 4.G.e.                      ",
"              2 : s | 1.F  .wX#XN.z 9 9 2 + o o O O O O @ @ @ @ @ @ O O O + + + o + ; e i j ( OX<X7.D F.e.k.                    ",
"            2 2 2 K 5.I M =X;XA.Q y e , * + O @ @ @ O O @ @ @ @ . . O @ @ @ o o + + @ 1 s i M -.$X+X( 1.t.x.                    ",
"        2 2 5 > r _ | v D.2X~.i.j u , & # o O O X @ O O + ; # + + + o O . O @ + + + % @ 1 p c N U.<XG.~ t.t.j.                  ",
"      e 2 > 2 > B ..U ~ 2XOXW.z u 9 ; # + + o o O + ; > + @ o @ o + * ; * @ . * + + + + + 1 p n X.OX+X .O.3.Y.                  ",
"      e 5 5 2 r { U m L.<X'.p.j i , & + o o o o - : + . . . . . . . . @ + ; * . @ o @ + + + y c N n.+XI.( ..v.z.                ",
"      6 : > 6 s } S ~ =X+XW.Q k 9 ; # O ; + + , + . . . . . . . . . . . . . ; : . O @ + + + , j N *.)..X..) 7.x.v f             ",
"    y 5 : 5 6 g } Z c.2X[.d.! i , ; + # ; + : + . . . . . . . . . . . . . . . + ; @ @ @ + * + q N ] U. XL.( ) v.} n r           ",
"    6 > 5 5 3 b v Q |.*X`.#.! 9 : & + # + ; $ . . . . . . . . . . . . . . . . . * ; @ o + + + ; c ` j._.T.>.( :.r.J s >         ",
"    6 > 7 > 7 h N $.+X XQ.` k 2 ; + $ # ; ; . . . . . . . . . . . . . . . . . . . ; + @ + + * ; u ( e._.T.L.W ~ } _ S 6         ",
"    3 6 6 : t f ' l.=X).N.+.j 1 ; $ < ; : . . . . . . . . . . . . . . . . . . . . . 1 o + + * + 2 N *./.T.J.^ ( g o.X.s v       ",
"    > 6 > : f b ' J.=X).i.+.u 2 & $ , : + . . . . . . . . . . . . . . . . . . . . . + > X + * * 2 c ( n.T.T.@.N b 7.8.S t v     ",
"  : 2 7 4 > m N '  X=X(.s.[ u 2 & & & ; . . . . . . . . . . . . . . . . . . . . . . . < + + + , > u J r.J.P.a.! f *.8.Z l l s   ",
"e : > 7 4 r @.' ;..X+XK.h.[ y 2 ; & : & . . . . . . . . . . . . . . . . . . . . . . . ; 2 o # , 9 y S w.G.I.G.~ f @.B.D S t s ' ",
"e : : 7 r v $.@.c..X{.B.A.[ u 2 ; & 2 o . . . . . . . . . . . . . . . . . . . . . . . @ 2 + # 9 9 e S w.r.G.J.~ v ~ a.%.K c r ' ",
"2 : > 7 t ~ m.,.Z..XH.k.!.] z e : : 2 X . . . . . . . . . . . . . . . . . . . . . . . . e : ; y i j S ..0.r.R.:.~ ~ m :.9._ s N ",
": 2 7 7 6 f m.u.v..X0.:.S.$.^ i 5 4 > . . . . . . . . . . . . . . . . . . . . . . . . . 2 e > u n M J U z.7.{.%.N ..D o.g.*.m m ",
": 7 t > 3 b m.a.G.}.5.7.7.>.#.c i c < . . . . . . . . . . . . . . . . . . . . . . . . . ; k e p / N _ O.l.%.{.9.S :.D ~ a.;.*.v ",
"5 > 7 2 r S W.y.G.R.5.g.A B.=.( / W ; . . . . . . . . . . . . . . . . . . . . . . . . . ; m j c ( b K 3.9.%.{.l.S %.| ..k.7.>.o.",
"t 6 _ b t =.m.8.G.R.o.7.f S.g.>.#.` ; . . . . . . . . . . . . . . . . . . . . . . . . . ; n c t 7 t A } k.:.{.l. .:.~  .~ ) !.^.",
"t 6 ] -.g G.>.>.G.T.( %. .f.S i.#.~ : . . . . . . . . . . . . . . . . . . . . . . . . . : y l v 3 2 4 v B.:.R.l.9.g.{ v c D ~.~.",
"b h X.o.V b.} >.G.R.N  .)  .v ,.k n , . . . . . . . . . . . . . . . . . . . . . . . . . : 4 k l r 4 : r V.:.{.G.9.z.5.v { =.W.c.",
"( f *.>.V z.6.7.G.P.m ] ) ' ' ( 9 y 2 . . . . . . . . . . . . . . . . . . . . . . . . . : 2 0 y s > 3 t h.a.E.I.0.k.8.) -.M.k.-.",
"N a &.f.B 9.r.5.G.P.~ m :.Z _ u , 9 e . . . . . . . . . . . . . . . . . . . . . . . . . , ; 9 2 k > 3 ~ h.9.E.P.0.] c.5.-.j.-.<.",
"M t *.s.s | r.6.G.P.Q N B.c v r ; ; e . . . . . . . . . . . . . . . . . . . . . . . . . > = < ; i 4 3 Z *.k..XR.l.8.L.j.6.>.&.( ",
"M 6 ^ u.A Y r.r.F.P.! S 7.b k e 1 * 2 + . . . . . . . . . . . . . . . . . . . . . . . O : + = # u e : v #.k..XR.Z.A.S.n.-.*.<.^ ",
"j r s ^ b 5.9.G.x.T.[ l 8.Z u e , + < : . . . . . . . . . . . . . . . . . . . . . . . ; ; + = ; y 6 : f ` v.*X{.Z.S.S.h.>.[ ` M ",
"i 6 p c g o.g.z.J.P.:.c { b e e > ; * 2 @ . . . . . . . . . . . . . . . . . . . . . . : # + + , y > > f +.L.*XXXL.j.h.u.&.M     ",
"  5 i p f J e.z./.P.w.M ..b e 9 : - + 1 ; . . . . . . . . . . . . . . . . . . . . . + ; + + # < y > 4 v #.|.*XXXQ.h.y.*.W       ",
"    p i c J -.n./.T.Z.N r.b 6 e : ; & & : @ . . . . . . . . . . . . . . . . . . . @ : o + + # 2 e 2 t Z %.+X.X'.A.u.;.[         ",
"    i t p N _ e.|.T.J.` 9.K > q , ; - + ; : . . . . . . . . . . . . . . . . . . . ; # o + # ; q 2 > D S g.=X|.~.m.<.<.          ",
"      i j c <.e.~. XJ.*.%.c.c 2 , ; + - + , ; . . . . . . . . . . . . . . . . . # ; o + o & ; 2 : t { ~ _.*X'.Q.,.+.+.          ",
"    2 y p c ( >.n.).R.>.) Z.<.i , ; - + + % > - . . . . . . . . . . . . . . . = ; X + O + # : 2 ; A K ' =X X'.V.+.+.            ",
"      q i c M *.f./..Xb.J r.e.j 9 ; ; % + + + : : @ . . . . . . . . . . . @ ; # X + + + # # > ; 7 O.Z C.<X(.`.i.`               ",
"      2 e j M ' ] D.|. X' 3.v.` i 9 - - + + + + ; , + O . . . . . . . @ ; ; O + O + + O # : ; ; { | m =X+X'.V.+.Q               ",
"        5 y n ( ] -./.+Xx.J F.>.z q 1 - ; * + + + + ; , ; + + + + + ; ; o @ O o O + + # = : ; c 3.Z l.2X).`.p.` M               ",
"          e n n ` _ n.+XOX[ 2.H.;.i 9 ; , - * + + + + + * * * * & + @ @ . + @ @ @ % % % - & p =.I ! ;XXX'.W.Q !                 ",
"              x M ( -.Y.<XT.n 4.^.;.u 9 - , - - * + + + @ @ O @ . @ . @ + + @ + - + + % & 6 =.T g (.2X(.W.#.! !                 ",
"              p n N ' j.XX<Xe.g 4.S.+.u y , - - * * + + + + + @ o o + + + + - % - + % - q <.2.F >.wX].`.y.! n                   ",
"                x n N ( g.OX;X] G 3.e.+.u 9 , - - * * + + + + + + + + + + % * % % - ; q ;.q.P ' 7X$X!.d.Q k k                   ",
"                p x M b ] Z.-X=X( B C ..;.j , : - - - - - - - - * * * * + * * * % , p *.9.I ( 1X>X~.N./ z k                     ",
"                  i j N N _ D.>X=X' B 8 X.y.n 2 , , - , - - - - * - * + + % * , w W -.4.I ] <X6X~.V.+.z i                       ",
"                  i i p c N b j.-X>Xg.v 8 Y -.@.n w 1 2 9 , - - * * - ; 5 q j M _ r.q.U g.2X,X`.N./ z i                         ",
"                    p w i x b f C.%X6X_.) d h L *.] M x i i w i w i k i c M L 3.q.E  ./.wX%XS.m.+.k y e                         ",
"                      ` 2 p c c N f.'.7X>XL.S a 7 V A K A N N b N ( { | T 2.4.T  .v.=X9X].V.y.M i e q                           ",
"                                  J ] j.#X9X5X_.6.Z a a h V C C I P P Y Y } 9.Y.-X7X%XQ.d.&.! i q q                             ",
"                                    M ` <.C.#X0X0X-XXXK.r.5. .|  .5.9.n._.$X4X5X&XQ.h.#.! j w 9 9                               ",
"                                      c ! [ <.f.S.#X%X5X8X5X5X1X1X1X1X5XqX&X~.N.;.[ ! i w q 9 1 1                               ",
"                                          j c M ` [ *.k.A.Q.!.!.!.Q.A.M.y.&./ ^ n j q 9 2 1                                     ",
"                                            y j u c n M W W ( ^ ^ ^ M M z j i w 9 9 2 1 ;                                       ",
"                                                    y e y y u i i q u w q q                                                     ",
"                                                                    2 1 1                                                       "
};
