/* XPM */
static char *_1dd7fa41d3745e6acb1b47e5d34bd165YHsNJKI06MRpAI4[] = {
/* columns rows colors chars-per-pixel */
"64 64 47 1 ",
"  c #232323",
". c gray14",
"X c #252525",
"o c gray15",
"O c #272727",
"+ c #282828",
"@ c gray16",
"# c #2A2A2A",
"$ c #2C2C2C",
"% c #2D2D2D",
"& c gray18",
"* c #2F2F2F",
"= c gray19",
"- c #313131",
"; c #323232",
": c gray20",
"> c gray21",
", c #373737",
"< c #393939",
"1 c #3A3A3A",
"2 c gray23",
"3 c #3C3C3C",
"4 c gray24",
"5 c #3E3E3E",
"6 c #414141",
"7 c gray26",
"8 c #434343",
"9 c #444444",
"0 c gray27",
"q c #464646",
"w c gray28",
"e c #484848",
"r c #494949",
"t c gray29",
"y c #4C4C4C",
"u c gray30",
"i c #4E4E4E",
"p c gray31",
"a c #505050",
"s c #515151",
"d c gray32",
"f c #535353",
"g c gray35",
"h c gray36",
"j c #5D5D5D",
"k c gray37",
"l c DimGray",
/* pixels */
"lhhhhhhhhhhhhhhhhhhhhhhhhhhhhhhhhhhhhhhhhhhhhhhhhhhhhhhhhhhhhhhl",
"gpaappaaaappaaaappaaaappaaaappaaaappaaaappaaaappaaaappaaaappaaag",
"hpppppppapppppaappppapppppaappppapppppaappppapppppaappppapppppah",
"hpppppppapppppppppppapppppppppppapppppppppppapppppppppppappppaah",
"happppppppppppppppppppppppppppppppppppppppppppppppppppppppppppph",
"happppppppppppppppppppppppppppppppppppppppppppppppppppppppppppah",
"haapppppppppppppppppppppppppppppppppppppppppppppppppppppppppppah",
"haappppppppppppppppppppppppppppppppppppppppppppppppppppppppppaah",
"hpppppppppppppppppppppppppppppppppppppppppppppppppppppppppppppph",
"hpppppppppppppppppppppppppppppppppppppppppppppppppppppppppppppah",
"happppppppppppppppppppppppppppaappppppppppppppaappppppapppppppah",
"happppppppppppppppppppppppppppaappppppppppppppaappppppaapppppaah",
"haaappppppppppppppppppppaaaaaaaaaaapppppaaaaafaaaaaaaafaaaaaaaah",
"happpppppppppppppppppppa96699696666pppap9669696966996696969969ah",
"hpppppppppppppppppppppa1XX+XXXXX+X3appa9+X+XXXXXX*3+X+XXX+XXX*ph",
"hppppppppppppppppppppa1X+X+++++XX3aappae+X+X+++X+9p+X+++X++XX*ah",
"happppppppppppppppppa1XX+X+++X+X3appppae+X+X++++9fe+++XX++X+X*ph",
"happpppppppppppppppa1X+++X+X++X6apppppae+X++X++9aae+XX+++X++X=ah",
"haapppppppppppppppa1X+X+++X+XX3aaappppae+XX+X+9faae++++X++XXX*ph",
"haappppppppppppppa1XX+X+X+++X3aapappppae+++++eapaae+XX++X+++X*ah",
"hpppppppppppppaaa1X++++X+X+X3appppppppae+XX+9aaaaae+X+X++++XX*ph",
"hppppppppppppppa1X+X+X++++X3apppppppppae+X*9apaapae+XX++XX+++*ph",
"happppppppppppa1XX++X+X++X3aaappppppppae++9apppppae+++XX++X+X*ph",
"happppppppppaa1X++X+++X+X3appappppppaaae+9aapppppae+X++++X++X*ah",
"haaappppppppa1XXXX++X++X3aaappppppppppa99aapppppaae++++X+XX+X*ph",
"happppppppaa1XX++++X++X3aapappppppppppaaapppppppap=XXX+++++++9ah",
"hpppppppppa1X++X+++X+X3appppppppppppppapppppppppp=X+++X+X+X+9aah",
"hppppppppa1X+X++XX++X3apppppppppppppppppppppppap= X++X+++X+9faah",
"happppppa1XX++X++++X3apppppppppppppppppppppppap=X+X+X+++++9aaaph",
"happpppa1X+++X+++XX3aappppppppppppppppppppppap=XX+X+++XX+9fpaaah",
"haapppa1X+XX++XX+X3aaapppppppppppppppppppppap=XX+X+++X++9fppppah",
"haappa1XX+++X+++X3aaaappppppppppppppppppppap= +X+++X+X+eaapppaah",
"hppaa1XX+++X+++X3aaappaappaappaapppppppppap=XX++XX++++9aaappppph",
"hppa1X++XX+++XX3apaapppappaappaapppppppppp= ++X++++X+9faaappppah",
"haa1X+X+++X+X+6aaaaaaaafaaaaaaaaaaappppap=XXXX++++X+9fppppppppah",
"ha1X+X+++X+++:e9e9e9999999e9999999eppppp=X+++++X+++9apppppppaaah",
"lp+X++XX++X+X++X+++X++XX++X+X++++X+eapa9+X++X++++X*pppppppppp:ah",
"gp*XX+++X+X++++++X++X+++++X+++X++++eapae+X+X++XX+X*ppppppppp*+el",
"hp*XX++++X+++X+XX+X+X++++X+++X+XX++9aaae+++++X++++*ppppppap= *ph",
"hp*X++XX+++X+X++++X+++XX+++X+X++X++eaaae+XXX++X+XX*ppppppp=XX*ph",
"ha*XXX+++X+++XX++XX+++X+++XX++X++++eapae+X+++X++XX*papppp*XXX*ph",
"hp*X+++X+X+X++++++++X+X+X++++X+++X+9apae+X+X+X+X+X*eappp= ++X=ah",
"lp+X+++X++X+X++XX++X+X++X+++++XX+X+eapae+X+X++X++X*paap*X+XXX*ph",
"gp* XXXXXXXXXXXXXXXXXXXX++XXX++++++eaaae+X++X++++X*pap=XX+++X*ah",
"hp1==:::=::::::=:=:=:=::+++++XX+X++eaaae+X+X+++X+X*pp* X+X++X*ph",
"hpppaapappaaaaapapapapaa=XX+++++X++eapaeXXXXXXXXXX*e*XXXXXXXX*ph",
"happppppppppppppaappppap=XX+X++X+++9apae:=========:1*========:ph",
"happpppppppppppppppppppp=X++X++X+X+eapppaaaaapaaapappaaaaaaaaaah",
"haappppppppppppppppppppp*X+XX++++++eapppppppppppapppppppppppppph",
"happppppppppppppppppppae*X++++X+XX+eapppppppppppppppppppppppppah",
"hppppppppppppppppppppppp=+X++X+X+++eapppppppppppppppppppppppppah",
"hppppppppppppppppppppppp*XX++X+++X+9appppppppppppppppppppppppaah",
"happpppppppppppppppppppp*X+X++X++++9apppppppppppppppppppppppppph",
"happpppppppppppppppppppp=X+++X++X++eapppppppppppppppppppppppppah",
"haappppppppppppppppppppp*XXXXXX+X+Xeapppppppppppppppppppppppppah",
"haappppppppppppppppppppp:==========eappppppppppppppppppppppppaah",
"hpppppppppppppppppppppppppppppppaappppppppppppppppppppppppppppph",
"hppppppppppppppppppppppppppppppppappppppppppppppppppppppppppppah",
"happppppppppppppppppppppppppppppppppppppppppppppppppppppppppppah",
"happpppppppppppppppppppppppppppppppppppppppppppppppppppppppppaah",
"haaapppppppapppppppppppapppppppppppapppppppppppappppppppppppppph",
"happaapppppappppaapppppappppaapppppappppaapppppappppaapppppappah",
"gappaaaappaaaappaaaappaaaappaaaappaaaappaaaappaaaappaaaappaapaag",
"lhhhhhhhhhhhhhhhhhhhhhhhhhhhhhhhhhhhhhhhhhhhhhhhhhhhhhhhhhhhhhhl"
};
