/* XPM */
static char *a02dd73248b640ee89eaccfa687f970evvDDZ6uGT7tDSSjT[] = {
/* columns rows colors chars-per-pixel */
"64 64 113 2 ",
"   c None",
".  c #000000",
"X  c #090601",
"o  c #0A0904",
"O  c #0A0C0F",
"+  c #1A1705",
"@  c #131313",
"#  c #1D1D1D",
"$  c #2A1F00",
"%  c #201208",
"&  c #29170B",
"*  c #252008",
"=  c #322C0D",
"-  c #3B2E09",
";  c #393005",
":  c #2D2D2D",
">  c #432713",
",  c #472914",
"<  c #492A15",
"1  c #492B18",
"2  c #512E17",
"3  c #4D3015",
"4  c #583319",
"5  c #6E3E1E",
"6  c #564610",
"7  c #5A4D11",
"8  c #75431F",
"9  c #655713",
"0  c #764320",
"q  c #784421",
"w  c #7C4924",
"e  c #444344",
"r  c #767676",
"t  c #953F03",
"y  c #964003",
"u  c #9B4405",
"i  c #B65902",
"p  c #C6810C",
"a  c #CA850E",
"s  c #CD890F",
"d  c #D28E0B",
"f  c #D6920B",
"g  c #D8950D",
"h  c #DC9A0F",
"j  c #CE8A10",
"k  c #D18E11",
"l  c #D59213",
"z  c #D89715",
"x  c #DB9B16",
"c  c #DF9F18",
"v  c #DFA018",
"b  c #E2A31A",
"n  c #E7A91C",
"m  c #EAAD1D",
"M  c #EDB11E",
"N  c #F0B41F",
"B  c #FF8D23",
"V  c #EEB420",
"C  c #F0B520",
"Z  c #F5BB23",
"A  c #F8BE24",
"S  c #F7C425",
"D  c #FAC225",
"F  c #FBC225",
"G  c #FBC226",
"H  c #FBC326",
"J  c #F9C025",
"K  c #FCC326",
"L  c #FBC727",
"P  c #FCC426",
"I  c #FDC426",
"U  c #FDC526",
"Y  c #FCC427",
"T  c #FDC527",
"R  c #FDC727",
"E  c #FEC627",
"W  c #FEC727",
"Q  c #FEC827",
"!  c #FEC828",
"~  c #FEC928",
"^  c #FECA28",
"/  c #FBCD28",
"(  c #FECC28",
")  c #FECD29",
"_  c #FECE29",
"`  c #FFCF29",
"'  c #FCD129",
"]  c #FFD029",
"[  c #FFD129",
"{  c #FDD229",
"}  c #FED229",
"|  c #FFD12A",
" . c #FDD22A",
".. c #FED22A",
"X. c #FFD22A",
"o. c #FED32A",
"O. c #FFD32A",
"+. c #FFD42A",
"@. c #FED52A",
"#. c #FFD52A",
"$. c #FFD62A",
"%. c #FED62B",
"&. c #FFD62B",
"*. c #FFD72B",
"=. c #FFD82B",
"-. c #848484",
";. c gray58",
":. c #9F9F9F",
">. c #D2D2D2",
",. c #E9E9E9",
"<. c #F4F4F4",
"1. c #FEFEFE",
"2. c white",
/* pixels */
"                                      . . q q q q < q . q q q 8 t w 0 q . q 1 q q q q .                                         ",
"                                      . . q q q q < < . . q q q 0 0 w . . 1 1 q q q q . .                                       ",
"                                  2 & . q q q q q < < < 4 . q q w w . 4 < 1 1 0 q q q q . &                                     ",
"                  . . . . . . . . . . . q q q q q q < < 4 q q q 0 0 q 4 < 1 q q q q q q . . . . . . . . . . .                   ",
"              . . . < < < < < < < < 4 . q q q q q q q q 4 q q q q q q 4 q q q q q q q q . 4 < , < < < < < < . . .               ",
"            . . < < < q q q q q q q q . q q q q q q q q q q q q q q q q q q q q q q q q . q q q q q q q q < < < . .             ",
"            . < < q q q q q q q q q q . 4 q q q q q q q q q q q q q q 0 q q q q q q q 4 . q q q q q q q q q q , < .             ",
"            . < < q q q q q q q q q q < < q q q q q q q q q q q q q q q q q q q q q q < < q q q q q q q q q q < < .             ",
"            . . < < q q q q q q q q q q q < < < q q q q q q q q q q q q q q q q < < < q q q q q q q q q q q < < . .             ",
"              . . 4 < < q q q q q q q q q q q 3 < < < q q q q q q q 0 q q 1 < < < q q q q q q q q q q q < < 4 . .               ",
"                . . . 4 < , < < q q q q q 8 q q q q > , < < q q q q < < > > q q q q q q q q q q < < < < 4 . . .                 ",
"                    . . . 4 4 < < q q q 8 q 8 5 8 q q q q q q q q q q q q 8 q 0 5 8 q q q q q < < 4 4 . . .                     ",
"                        . . . . < < < < < q q q 0 q q q q w q q q q w q q q q q q q q < < < < < . . . .                         ",
"                              . . . 4 < < < < < , w q 0 0 q q q q q q q q q w < < , < < 2 4 . . .                               ",
"                              p k E = . . . > 4 < < 1 q q q q q q q 0 q q < < < 4 , . . . = Q l p                               ",
"                              p l E =.. . . . o > 4 1 1 < 1 q q q 0 1 < 1 1 4 > . . . . . =.E l p                               ",
"                              p k E =.. . o -.: . . . % 1 < < < < < 1 1 + . X . : -.o . . *.E k p                               ",
"                              p k E =.. . r 2.2.>.:.# . . X . . . . . . . # :.>.2.2.r . . *.E k p                               ",
"                              p s E E =.. @ <.2.2.,.;.. - W W W W W T - . ;.,.2.2.<.@ . =.W W j p                               ",
"                                p E E =.+ . . e : @ X O $ W W W W W Y $ O o @ : e . . + =.W W p                                 ",
"                                p M E E =.o o . . . o ; E E E B B W T W ; o . . . o o =.E E m p                                 ",
"                                a a Y E W =.6 6 * 7 9 Q E E B B B B W T E 9 7 * 6 6 =.E E H j a                                 ",
"                                  p n E E E =.=.=.=.E E E B B B B B B T E E =.=.=.=.E E E n p                                   ",
"                                  k s E E E E E E E E E B B B B B B B B E E E E E E E E E s k                                   ",
"                                    a Z Q U E E E E E B B B B B B B B B B W T W E E E E N a                                     ",
"                                    p l U U E E E B B i i i B B B B i i i B B T E E E E l a                                     ",
"                                    p p b Q E E E t y t i i i i i i i i t t t W E E E b a                                       ",
"                                      p p s x N E E E t u y i i i i t u t T W T N x s p                                         ",
"                                          s s d h m Q Q U Q y y y y Q U W E m h d d a                                           ",
"                                          j k *.m h g h m U Q Q E U U M z g h m *.k j                                           ",
"                                        p j x *.} } $.M f f f f f f f f M } } } *.x j p                                         ",
"                                      p l ) *.*.m } =.=.$.=.} } } } =.=.$.*.*.m *.=.) l                                         ",
"                                    p j S *.*.C m *.&.&.=.=.=.&.=.=.=.=.=.=.*.m C =.%.S j                                       ",
"                                  p z &.=.=.{ z { &.=.{ V Z &.=.=.=.Z M *.=.=.' z  .=.=.=.z p                                   ",
"                            j s s j ' =.=./ x Z =.=.*.E v { =.=.*.=.} c E *.=.=.Z x / =.=.{ j a a j                             ",
"            a a j k k k l k k l Z ^ %.S Z m ' *.=.=.*.V x *.&.=.*.*.} x N *.=.*.=.' m Z S *.^ Z l j l k k k k j s a             ",
"        b j k V Z Z Z A T W T W W W L b V ' &.=.&.=.{ b m &.=.=.=.=.=.m b { *.*.=.&.{ V b W W W ^ W W T A A Z Z V l j           ",
"      x k x b A W W W W W T W T W ^ { { { &.&.=.=.&.Z c *.*.=.=.=.=.*.*.c Z *.=.=.=.&.O.O.{ W T W W T W W W T W A b x j x       ",
"    k k T C c l c A W W T W T W W W W ^ ) *.=.=.&.=.&.=.=.*.=.=.=.=.*.=.*.*.=.*.&.=.&.^ ^ W T W W T W T T W A b l c V W k k     ",
"  a j A T T T Y M x m G W T W T K W W W W { &.=.=.=.=.=.=.=.=.=.=.=.=.=.*.=.=.*.&.&.{ W W W W K T W T W K n x m T W W W A s s   ",
"  j k A W T T T W A n c M T T W W T W T W W ` &.=.*.*.=.=.=.=.=.=.=.=.=.=.=.*.*.=.{ E E T W T W T W K M c n A W W T W T Z k s   ",
"k z G z M Y T T T W T Z b c Z W T W T W T W ^ &.=.*.=.=.=.=.=.=.=.=.=.=.=.=.*.*.*.E E E W T W T W Z c b Z T W T T W T M z T z k ",
"j C W Z b x A W W T W T T C l M W W W T T W W O.=.=.=.=.=.=.=.=.=.=.=.=.=.=.*.*.{ E E E W W E E M l C T W T T W W Z c b Z T C k ",
"j W W W T M c Z T W T W T W A b b A W W W T W ^ &.=.=.=.=.=.=.=.=.=.=.=.=.=.*.*.^ E E E W W A b b A T W T W T T C c V T W T T k ",
"j T W T T T A l Z W W T W W W W n c W W T W T W ) =.=.=.=.=.=.=.=.=.=.=.=.=.=.{ E E E E E E b n T T W T W T W Z k Z T W W T K k ",
"p T T W T T W Z c Z T W T W W T W b n W W T W T W *.&.=.=.=.=.=.=.=.=.=.*.*.*.^ E E E E E n b E T W T W T W Z c Z T W T T W K p ",
"s M W T W T W T Z k T T W T T ! W A x M T W T W W *.&.=.=.=.=.=.=.=.=.=.=.*.{ E E E E E m x H E W T W T W T k Z W W T W W W m k ",
"s c T W T W T W T M c A T W T T T T A x A T W T W ) =.=.=.=.=.=.=.=.=.=.=.*.) E E E E H c A E E T W T W A c M T W T W W W W c p ",
"a z A W W T W T W T m b T T W T W T W n m W W T W ^ &.=.=.=.=.=.=.=.=.=.&.&.! W T T T m n W T W W T W T b n W W W W T W T A z a ",
"a n m W T W T W T W T c C W T W T W T Z c W T W T W &.=.=.=.=.=.=.=.=.=.=.&.! T ! T T c Z T W T T W W C c T W W W T W T W m n s ",
"s Z c T W T W T W T W Z l W W T W T W K x W W T W W O.=.=.=.=.=.=.=.=.=.=.&.W W W W W x T T T W T W T l Z T T W T W T W A c Z s ",
"s W n b T W T W T W T W n n T W T W T K c W T W W W &.=.=.=.=.&.&.=.=.=.=.O.T W W W W c A W W T W T n n W T W T W T W T n n T s ",
"s T A c C W W T W T W T A z T W T W T Z c T W T T W O.&.=.=.=.=.=.=.=.=.=.O.W W W T W c A T T W T K z A W W T W T T T C c T T s ",
"s T W A k Z T W T W T W T b C T W T W M n W T W W T O.=.=.=.=.=.=.=.=.=.&.O.W W W W T n M W W T W C b W W W W T T T Z l A W T s ",
"a T T W Z c A W W T W T W M n T T W T b x W W T T W ) =.=.=.=.=.=.=.=.=.&.O.T W T W T x b W W T W n m W T W T W W A c Z T W T a ",
"p T W T W m c T T W T W T Z c W W T W b b T T W W T { &.&.=.=.=.=.=.=.&.&.` W T W W W b c W T W T b C W W T W T T c m T W T T p ",
"p c T W T T n c A W W T W A b W W T T k K W W T E E *.=.=.&.=.=.=.=.&.=.=.&.W W W T W A l T W T W b Z W T W W A c n T T T W b p ",
"p a Z W T T T M A W T W T W T W T W n n T W T W E E *.=.=.=.=.=.=.=.=.=.=.=.W W T W T W n n T W W W W T W T W A m T W W W C a p ",
"  a k W W T W T W T W T W T W T W A c A W T W T E ^ =.=.=.=.{ =.=.O.&.=.=.=.W W W T W W A x A T W T T W T W T W W T W W W k a   ",
"    s l Z W T W T W T W T W T W W n n T T W T W E ^ =.=.=.=.*.*.&.=.=.=.=.&.^ W W W W W T M n T T W W T W T W T W W T Z l j     ",
"      l k A T T W T W T W T W T C l M T E E E E E ^ *.*.&.=.&.=.=.&.&.&.=.&.^ W T T ! ! T m z C W W T W T W T W T T A k k       ",
"        s a C T T W T W T W T Z x b T T E E E E E E { *.&.&.=.*.*.=.=.&.=.O.W W T T T T T T c z Z W W T W T W T W C a s         ",
"          a a k b A T T W T T T Z W E E E E K E E E ) *.&.&.*.{ { *.&.&.*.! T W T T T T T T T Z T T T W T W A b k a a           ",
"              a s s k z x z s s s k k z x b n n c x k l d s k z z k j k l k x x b m b x z l k s s s z x z k a s s               "
};
