/* XPM */
static char *_d9b99e1d42d460a8b6facdba481a0e8IyE1Rd6Rfwk8Ao6b[] = {
/* columns rows colors chars-per-pixel */
"64 64 216 2 ",
"   c None",
".  c #010100",
"X  c #0A0603",
"o  c #0D0905",
"O  c #0C0C0B",
"+  c #070809",
"@  c #140B06",
"#  c #190E06",
"$  c #130E0B",
"%  c #1D120A",
"&  c #1A1604",
"*  c #161515",
"=  c #24140A",
"-  c #2B190D",
";  c #24160A",
":  c #321C0E",
">  c #381F0F",
",  c #231A14",
"<  c #2A1C12",
"1  c #311E11",
"2  c #39230E",
"3  c #38270C",
"4  c #3B2212",
"5  c #372414",
"6  c #2E2E31",
"7  c #302A27",
"8  c #432512",
"9  c #4B2B15",
"0  c #462913",
"q  c #532F17",
"w  c #4B3714",
"e  c #553119",
"r  c #5A3419",
"t  c #543616",
"y  c #44380C",
"u  c #7D2501",
"i  c #60361A",
"p  c #64391C",
"a  c #6C3D1D",
"s  c #703F1F",
"d  c #693E22",
"f  c #52430B",
"g  c #5B4413",
"h  c #5A4C17",
"j  c #644B13",
"k  c #6F401E",
"l  c #654717",
"z  c #73411E",
"x  c #79441F",
"c  c #6A5815",
"v  c #7C5D19",
"b  c #42423E",
"n  c #764321",
"m  c #794521",
"M  c #7F4823",
"N  c #665621",
"B  c #7B6B26",
"V  c #515152",
"C  c #717176",
"Z  c #822901",
"A  c #8E3600",
"S  c #8D3F08",
"D  c #933D02",
"F  c #9A3F01",
"G  c #964001",
"H  c #9D4403",
"J  c #A14902",
"K  c #A94E03",
"L  c #B14F00",
"P  c #AE5203",
"I  c #AA520D",
"U  c #B65902",
"Y  c #B65602",
"T  c #AB5411",
"R  c #B45E16",
"E  c #896B18",
"W  c #8E701E",
"Q  c #9B7E19",
"!  c #BE6202",
"~  c #B96F01",
"^  c #B86805",
"/  c #B77003",
"(  c #BB7201",
")  c #BB750C",
"_  c #BD6116",
"`  c #BB7A18",
"'  c #834A24",
"]  c #894D26",
"[  c #8B5026",
"{  c #BE6E22",
"}  c #BE7E22",
"|  c #C05E02",
" . c #C46402",
".. c #C96602",
"X. c #CC6A02",
"o. c #C66904",
"O. c #D56C06",
"+. c #C17B06",
"@. c #C47E0C",
"#. c #C87A05",
"$. c #D57401",
"%. c #DA7803",
"&. c #DB7C09",
"*. c #D67606",
"=. c #E87914",
"-. c #E57D0E",
";. c #B08A1E",
":. c #AD921F",
">. c #BB991C",
",. c #A4811C",
"<. c #9C8933",
"1. c #B78E30",
"2. c #BEA53C",
"3. c #C6810C",
"4. c #C9840D",
"5. c #CC8B0D",
"6. c #C88406",
"7. c #DE8E0E",
"8. c #D0900E",
"9. c #C58111",
"0. c #C98411",
"q. c #CE8B11",
"w. c #C5861B",
"e. c #D18D13",
"r. c #C6941D",
"t. c #D39213",
"y. c #DC9717",
"u. c #D69419",
"i. c #D9971B",
"p. c #DB9A1C",
"a. c #D89A13",
"s. c #EF810A",
"d. c #EA8618",
"f. c #F58B1D",
"g. c #FA8B1D",
"h. c #F3871B",
"j. c #E19E1E",
"k. c #E8931E",
"l. c #CCAF16",
"z. c #DFA219",
"x. c #E5AA1C",
"c. c #EBAD1E",
"v. c #E6A71C",
"b. c #EDB41E",
"n. c #F1B71E",
"m. c #C68722",
"M. c #C49A21",
"N. c #DE9D22",
"B. c #D99E29",
"V. c #D79A30",
"C. c #E88929",
"Z. c #FE8C23",
"A. c #FF8D28",
"S. c #E09F23",
"D. c #FE9423",
"F. c #FF9B24",
"G. c #FF9428",
"H. c #FB9C3E",
"J. c #CAA722",
"K. c #DDA123",
"L. c #DBAB22",
"P. c #CDB124",
"I. c #D9BB27",
"U. c #E3A324",
"Y. c #E7A925",
"T. c #EBAD24",
"R. c #E2A82B",
"E. c #FEA227",
"W. c #EDB124",
"Q. c #ECB42C",
"!. c #EABB26",
"~. c #F1B524",
"^. c #F4BB25",
"/. c #F9BF23",
"(. c #F7BE29",
"). c #F5BB28",
"_. c #F0BC37",
"`. c #FEC41E",
"'. c #ECC727",
"]. c #F6C226",
"[. c #FEC627",
"{. c #FFC927",
"}. c #F7C32B",
"|. c #FDC629",
" X c #FECA29",
".X c #FED32B",
"XX c #FFDA2B",
"oX c #F4D42C",
"OX c #FAC731",
"+X c #FDCB33",
"@X c #FDCD3B",
"#X c #F6C833",
"$X c #FFD03A",
"%X c #C0AB48",
"&X c #F0BF40",
"*X c #DFC44A",
"=X c #FCCE43",
"-X c #FBCE48",
";X c #FDD245",
":X c #FFD54F",
">X c #FFDD4E",
",X c #FBDA4A",
"<X c #F2D64B",
"1X c #FFD652",
"2X c #FFDE51",
"3X c #FEDF52",
"4X c #FEDB53",
"5X c #ECC44D",
"6X c #FEE055",
"7X c #FEE354",
"8X c #FCE659",
"9X c #9DA3B3",
"0X c #A0A2A6",
"qX c #CBCBCB",
"wX c gray84",
"eX c white",
/* pixels */
"                5 d a z ' ' ] m ' ] M [ m r 9 5 @ X . . . . . . . . . . @ = : 9 i p x x 9 X                                     ",
"              @ 9 ] ' ' ' x m m m n m m ' n n m e : % X . . . . . . . . . . . X = % > > % +                                     ",
"              X 9 ' ' m m m x m n m m n m m M ' ' p e > # . . . . . . . . . . . . . . X X $                                     ",
"                = r m ' m m m m m n m n m n m m ' ' n x q 4 = @ . . . . . . . . . . . . X *                                     ",
"                X < e z ' ' ' m n m n m m m m n m m m ' ' x p 9 = = X X . . . . . . . . .                                       ",
"                    % 0 q s ' ' ' m m n n n n n m m m n m ' ' m s e 9 - = @ . o . X X . .                                       ",
"                        < 4 e s n ] M m m m n m m n m m m m m ' ' ' m a p e 9 8 : > 4 - $ O                                     ",
"                        %XB h t e p ' m M M m n m n n m m n m n M x ' ' m [ x m m s s r 8 =                                     ",
"                        ,X4X2.1.N w 9 a n M ' m n m n m m n m m x n n m m m ' M m ' m p p r : X                                 ",
"                      2X>X2X7X3X*X<.h 3 q n m M m n m n m m n n x n n m n n m n m m m s n ' a 5 $                               ",
"                      2X3X3X3X3X2X).>.j 3 q n m M m m m n m n m n m m n n m n x m m m s ' ' ' d 4 @                             ",
"                    7X2X2X3X3X6X+X[./.J.f < 9 n m M m n m n m n m n m m m m n m m m m m m m m ' a : +                           ",
"                    >X2X2X2X6X;X`.|. Xl.b C 6 9 z m ' m n n n m n m m m n m n m n m m n m m m m ' q $                           ",
"                    >X2X2X3X6X|.[.[.XXf 9XwXC 6 0 p m ' M n n m n m n m m n m n n m m m m s m m ' z # +                         ",
"                  6X2X2X3X6X,X`.[.{.'.& 0XeXwXV $ 4 i n ' M m n m m n n m n m m m m s m m m n m ' x # o                         ",
"                  3X2X2X3X3X X[.{.{.!.X 6 qXqX, + O 2 r z ' M m m n m x n m n m n m m m m m m s ' p -                           ",
"                  7X8X7X8X7X|.[.[.{.'.& . O O . . . y w 0 p M M m ' n x n n n x m n n n m m m m ] a 5                           ",
"                  <Xk.k.S.!. X{.|.[.XXf . . . . . . :.,.g : r z x M ] M ' m m M n n m x n m m ' m q ,                           ",
"                  k.g.D.g.=.7.|. X[..XP.o . . . . c XX^.>.E w l 0 r k x ' M ' x m ' m ' ' m ' ' r >                             ",
"                O.D.E.D.Z.A.=.&.|..X[.XX>.3 . & c oX{.|.{.!.M.;.E g g t 9 k a x ' m ] m ' m s r 4                               ",
"              C.F.G.D.Z.Z.Z.f.X.$.Y. X XXXoXP.I.XX{.|.[.[.|.[.].{.>.M.E c l 9 t 9 q 9 q e 4 : , =                               ",
"          =.f.F.D.Z.Z.Z.Z.Z.&.$.$.X.#.k.T.].XX.X{.[.[.[.[.[.[.[.[.[.|.].L.M.,.v v * $ $ $ +                                     ",
"C.H.C.f.Z.D.G.D.Z.Z.Z.f.d.$.$.$.$.%.$...Y ^ ].{.[.|.|.[.[.|.|.[.[.{.|.[.[.[.!.T.R.                                              ",
"o.s.g.Z.Z.Z.f.h.d.-.&.$.$.$.%.*.$.O. . .K G |.{.[.[.[.[.[.[.[.[.[.|.[.[.[.[.^.c.                                                ",
"  J  .O.%.%.*.$.$.$.$.$.$.$.$.X...| U G u r..X[.[.[.[.[.[.[.[.[.[.[.[.[.[.{.W.W.                                  #X+X[.[. X    ",
"  H D G K U U ..X.X.o.X. . .Y P J D Z G p.XX[.[.[.[.[.[.[.|.|.{.[.|.|.[.{.^.T.W.                            Q.|.[.[.[.{.[.[.    ",
"    _ T D A A D G D G G D D D G G P e.[..X[.[.[.|.[.[.|.[.[.[.[.[.|.[.[.[.W.c.                      N.K.T.].{.[.[.[.|.[.[.`.-X  ",
"            { R K T I P U U ^ o.#.j..X X[.|.[.[.[.[.[.[.[.[.|.[.[.[.{.{.^.c._.            V.R.N.N.U.W.[.{.{.|.[.[.[.[.[.[.[.+X  ",
"                      3.6.5.6.4.U.U.z.|.{.|.{.|.[.[.|.[.[.[.|.[.[.{. X^.W.W.    m.0.3.q.u.j.v.T.^.{.{.{.|.[.[.|.[.|.{.[.[.[.|.  ",
"                        w.+.e.U.U.S.N.U.|. X[.|.|.[.[.[.[.|.[.[.{.{.}.Y.p.+.( +.3.u.U.Y.~.].].{.{.[.[.|.[.[.[.[.[.[.[.[.[.[.[.  ",
"                          v.S.S.N.j.U.N.K.^.{.{.[.[.[.[.[.|.[.|.].T.i.8.5.p.Y.~.(.|.{.{. X{.[.[.[.[.{.|.|.[.[.[.[.[.[.[.[.[.[.  ",
"                        &X~.T.Y.U.U.N.N.N.N.Y.|.{.|.|.[.[.[.{.].~.~.^.].{. X X X{.{.{.|.|.{.[.[.[.[.[.].].|.{.[.[.|.[.[.[.[.[.#X",
"                      Q.c.W.T.~.~.T.T.Y.v.U.U.U.].[.[.|.[.[.[.[.{.{.{.|.{.|.[.[.[.[.[.[.[.[././.[.(.|.#X{.].|.[.[.[.[.[.[.[.{.[.",
"                    c.W.W.T.W.T.T.T.W.W.~.~.T.T.[.{.[.[.|.[.[.[.[.[.[.|.|.|.{.[.[.].[./.(.}.@X=X;X1X4X1X+X~.^.[.[.|.[.|.|.[.].[.",
"                    c.W.W.W.T.~.W.W.T.~.T.T.T.[.|.[.[.[.[.[.[.[.{.[.[.[.[./.[./.|.#X=X;X:X1X4X1X1X1X1X1X$X^.Y.|.[.|.[.[.[.|.{.[.",
"                  c.T.W.W.T.T.~.~.T.W.W.T.T.].{.[.[.[.|.[.[.[.[.[.`.[./.|.@X;X;X1X1X1X1X:X:X:X:X:X1X1X1X+Xn.U.].{.[.[.[.[.[.[.{.",
"                ~.T.W.W.T.~.T.T.T.W.T.T.W.|.{.[.|.[.[.[.[.[.[.[.|.@X;X:X1X1X1X1X:X:X:X:X:X:X1X:X:X:X:X1X+Xb.S.~.{.[.[.{.[.[.|.{.",
"              Q.c.W.W.W.T.~.T.W.T.T.T.^.|.{.[.[.[.[.[.|.+X=X;X:X1X1X1X1X1X:X:X1X:X:X:X:X:X:X:X:X:X:X1X1X Xx.j.~.|.[.[.|.[.|.|.[.",
"              (.T.T.T.T.T.Y.T.T.~.^.[.{.[.[.[.|.+X;X;X1X1X1X1X1X1X1X:X:X:X:X:X1X:X:X:X:X:X:X:X:X:X1X1X-X{.z.U.T.].[.[.[.[.[.|.[.",
"            |.[.|.^.~.~.^.^.^.|.|.{.[.[.[.|.:X1X1X1X1X:X:X:X:X:X:X1X:X:X:X:X:X:X1X:X:X:X:X:X:X:X:X:X1X+X{.a.U.W.^.{.[.[.|.[.[.[.",
"             X|.{.{.{.{.{.{.{.{.|.[.[.[.[.{.1X1X:X:X:X:X:X:X:X:X:X:X:X:X:X:X:X:X:X:X:X:X:X:X:X:X:X1X>X{.^.e.Y.T.~.{.[.[.[.{.[.|.",
"            [.|.[.|.|.[.|.|.|.[.|.[.[.|.[.[.@X1X1X:X:X:X:X:X:X:X:X:X:X:X:X:X:X:X:X:X:X1X:X1X:X:X:X1X@X{.x.u.T.~.~.|.[.[.[.|.[.+X",
"          +X[.[.[.{.|.[.|.[.|.[.[.[.|.[.[.[.{.1X:X:X:X:X:X1X:X:X:X:X:X:X:X1X:X:X:X:X:X:X:X:X:X:X1X;X[.{.8.N.T.T.~.|.|.|.[.|.[.|.",
"          |.[.[.[.[.[.[.[.[.[.[.[.[.[.[.[.[.[.=X1X:X:X:X:X:X:X:X:X:X1X:X:X:X:X:X:X:X:X:X:X:X:X1X1X+X{.W.4.U.W.T.W.|.|.|.[.[.[.|.",
"          |.[.[.[.[.[.[.{.|.[.[.|.[.[.|.[.[.[.|.1X1X:X:X1X:X:X:X:X:X:X:X:X:X:X:X:X:X:X:X:X:X:X1X@X[. X5.u.U.W.T.~.|.[.[.[.[.[.=X",
"          {.|.[.|.{.|.[.[.[.[.|.[.[.[.[.[.[.[.[.+X4X:X:X:X:X:X:X:X:X:X:X:X:X:X:X:X:X:X:X:X1X1X+X`. Xx.3.U.T.~.T.~.{.|.[.[.|.[.  ",
"          [.[.[.[.[.[.[.[.[.[.[.{.[.[.[.{.[.[.[.[.+X1X:X:X:X:X:X:X:X:X:X:X:X:X:X:X:X:X1X1X1X+X[. X].6.i.U.T.W.T.^.{.[.[.|.[.[.  ",
"          |.[.[.[.[.|.[.[.|.[.[.|.[.[.[.[.[.[.[.[.[.=X4X1X:X:X1X:X:X:X1X:X:X1X:X1X:X1X1X;X|.[.[..X5.4.U.U.~.W.T.(.|.|.[.|.[. X  ",
"          {.[.[.[.[.[.[.[.[.[.[.|.[.[.[.[.[.|.[.{.[.[.+X:X1X1X1X:X:X1X:X:X1X:X1X1X1X;X+X[.[.{..Xa.) v.N.Y.~.T.T.[.[.[.{.|.[.#X  ",
"          @X[.[.[.|.[.|.|.[.{.|.[.[.[.|.[.{.[.[.[.|.[.[.|.+X;X1X1X1X:X1X:X:X:X;X@X|.[.[.[.{..Xa.( p.U.U.~.W.T.~.{.[.[.[.[.[.    ",
"          =X[.[.[.|.[.[.[.[.[.[.[.[.[.[.|.[.[.[.[.[.[.[.[.[.[.|. XOX XOX X|.[.[.[.[.[.[.{. Xa.( u.U.N.T.~.T.T.(.{.[.[.[.[.{.    ",
"            [.|.[.[.[.[.[.[.|.[.|.[.{.[.[.[.|.[.[.[.[.[.[.|.[.[.[.[.[.[.[.[.[.[.[.[.|..X|.t.( t.U.K.Y.W.W.Y.~.{.|.[.[.|.[.      ",
"            ].{.[.|.[.|.|.[.[.{.[.|.[.|.[.[.{.[.[.[.{.|.[.[.|.[.[.[.[.[.[.[.|.[.[.{..X!.3.( u.U.K.U.W.W.T.T.].{.[.[.[.[.[.      ",
"            #X[.|.[.[.{.[.[.[.|.[.[.[.[.|.[.|.[.[.[.[.[.|.[.{.[.[.[.[.[.[.[.[.|. X Xa.+.+.p.U.U.U.~.~.T.T.^.{.[.|.[.{.`.=X      ",
"              [.[.[.[.[.[.[.[.[.|.[.[.[.[.[.[.[.|.[.[.[.[.[.|.[.[.[.[.|.[.[. X.Xb.4.+.q.S.U.S.U.T.~.T.T.^.[.[.[.[.[.[.[.        ",
"              {.[.|.[.[.|.[.[.|.[.{.[.|.[.[.|.[.[.[.|.[.[.[.[.[.[.[.[.|..X.Xn.8.( 3.p.U.S.S.T.~.T.T.T./.[.[.[.[.|.{.`.5X        ",
"                [.[.[.[.[.|.[.[.[.[.{.[.[.[.[.[.[.[.|.[.[.[.[.[.|.{..X{.b.t.) 5.i.U.S.U.U.T.T.T.~.(.{.{.[.|.[.{. X[.T.          ",
"                ].{.[.{.[.[.|.[.[.[.|.[.[.|.[.|.|.[.[.[.[.[.|.[.[.].x.8.3.e.N.U.R.Y.T.~.^.(.].[.{.{.[.[.[.{.{. X~.U.            ",
"                  ].{.{.|.[.[.[.[.|.[.[.[.|.[.[.{.[.|.[.|.[.|.{.{.~.b.W.^.}.|.|.|.{.{.{.{.{.|.{.[.|.[.{.{.{.^.Y.p.              ",
"                  K.~.{.{.{.{.{.[.[.{.{.{.[.{.[.{.[.[.{.[.{.|.{.|.{. X X X{.{.{.{.{.{.{.{.{. X X{.{.|.].W.Y.U.N.                ",
"                    K.U.^.^.(.].|.].{.{.|.|. X X{.{.{.{.{.{.|.{.].|.[.|.].|.].].]./.^.).).Q.W.W.Y.Y.U.U.K.U.e.                  ",
"                      B.i.U.U.U.U.Y.Y.R.R.T.R.T.Y.Y.Y.R.Y.Y.R.Y.Y.Y.Y.U.Y.Y.R.U.R.U.U.U.U.S.R.S.U.U.N.p.q.9.                    ",
"                          9.0.4.@.3.9.9.@.@.3.@.9.9.0.0.0.9.3.9.0.0.0.0.0.0.0.0.0.0.0.0.0.0.@.@.@.+.+.) `                       ",
"                              m.` ( ^ ) @.) ) ( ( ( ( ( ( ( ( ( ( ( ~ ~ ( ~ ( ~ / / ( ~ ( ( ) ` } m.                            "
};
