/* XPM */
static char *_328726b52a444bb852e8b07b9b1c014ih671yK742hi1DBa[] = {
/* columns rows colors chars-per-pixel */
"64 64 216 2 ",
"   c None",
".  c #010100",
"X  c #0A0603",
"o  c #0D0905",
"O  c #0C0C0B",
"+  c #070809",
"@  c #140B06",
"#  c #190E06",
"$  c #130E0B",
"%  c #1D120A",
"&  c #1A1604",
"*  c #161515",
"=  c #24140A",
"-  c #2B190D",
";  c #24160A",
":  c #321C0E",
">  c #381F0F",
",  c #231A14",
"<  c #2A1C12",
"1  c #311E11",
"2  c #39230E",
"3  c #38270C",
"4  c #3B2212",
"5  c #372414",
"6  c #2E2E31",
"7  c #302A27",
"8  c #432512",
"9  c #4B2B15",
"0  c #462913",
"q  c #532F17",
"w  c #4B3714",
"e  c #553119",
"r  c #5A3419",
"t  c #543616",
"y  c #44380C",
"u  c #7D2501",
"i  c #60361A",
"p  c #64391C",
"a  c #6C3D1D",
"s  c #703F1F",
"d  c #693E22",
"f  c #52430B",
"g  c #5B4413",
"h  c #5A4C17",
"j  c #644B13",
"k  c #6F401E",
"l  c #654717",
"z  c #73411E",
"x  c #79441F",
"c  c #6A5815",
"v  c #7C5D19",
"b  c #42423E",
"n  c #764321",
"m  c #794521",
"M  c #7F4823",
"N  c #665621",
"B  c #7B6B26",
"V  c #515152",
"C  c #717176",
"Z  c #822901",
"A  c #8E3600",
"S  c #8D3F08",
"D  c #933D02",
"F  c #9A3F01",
"G  c #964001",
"H  c #9D4403",
"J  c #A14902",
"K  c #A94E03",
"L  c #B14F00",
"P  c #AE5203",
"I  c #AA520D",
"U  c #B65902",
"Y  c #B65602",
"T  c #AB5411",
"R  c #B45E16",
"E  c #896B18",
"W  c #8E701E",
"Q  c #9B7E19",
"!  c #BE6202",
"~  c #B96F01",
"^  c #B86805",
"/  c #B77003",
"(  c #BB7201",
")  c #BB750C",
"_  c #BD6116",
"`  c #BB7A18",
"'  c #834A24",
"]  c #894D26",
"[  c #8B5026",
"{  c #BE6E22",
"}  c #BE7E22",
"|  c #C05E02",
" . c #C46402",
".. c #C96602",
"X. c #CC6A02",
"o. c #C66904",
"O. c #D56C06",
"+. c #C17B06",
"@. c #C47E0C",
"#. c #C87A05",
"$. c #D57401",
"%. c #DA7803",
"&. c #DB7C09",
"*. c #D67606",
"=. c #E87914",
"-. c #E57D0E",
";. c #B08A1E",
":. c #AD921F",
">. c #BB991C",
",. c #A4811C",
"<. c #9C8933",
"1. c #B78E30",
"2. c #BEA53C",
"3. c #C6810C",
"4. c #C9840D",
"5. c #CC8B0D",
"6. c #C88406",
"7. c #DE8E0E",
"8. c #D0900E",
"9. c #C58111",
"0. c #C98411",
"q. c #CE8B11",
"w. c #C5861B",
"e. c #D18D13",
"r. c #C6941D",
"t. c #D39213",
"y. c #DC9717",
"u. c #D69419",
"i. c #D9971B",
"p. c #DB9A1C",
"a. c #D89A13",
"s. c #EF810A",
"d. c #EA8618",
"f. c #F58B1D",
"g. c #FA8B1D",
"h. c #F3871B",
"j. c #E19E1E",
"k. c #E8931E",
"l. c #CCAF16",
"z. c #DFA219",
"x. c #E5AA1C",
"c. c #EBAD1E",
"v. c #E6A71C",
"b. c #EDB41E",
"n. c #F1B71E",
"m. c #C68722",
"M. c #C49A21",
"N. c #DE9D22",
"B. c #D99E29",
"V. c #D79A30",
"C. c #E88929",
"Z. c #FE8C23",
"A. c #FF8D28",
"S. c #E09F23",
"D. c #FE9423",
"F. c #FF9B24",
"G. c #FF9428",
"H. c #FB9C3E",
"J. c #CAA722",
"K. c #DDA123",
"L. c #DBAB22",
"P. c #CDB124",
"I. c #D9BB27",
"U. c #E3A324",
"Y. c #E7A925",
"T. c #EBAD24",
"R. c #E2A82B",
"E. c #FEA227",
"W. c #EDB124",
"Q. c #ECB42C",
"!. c #EABB26",
"~. c #F1B524",
"^. c #F4BB25",
"/. c #F9BF23",
"(. c #F7BE29",
"). c #F5BB28",
"_. c #F0BC37",
"`. c #FEC41E",
"'. c #ECC727",
"]. c #F6C226",
"[. c #FEC627",
"{. c #FFC927",
"}. c #F7C32B",
"|. c #FDC629",
" X c #FECA29",
".X c #FED32B",
"XX c #FFDA2B",
"oX c #F4D42C",
"OX c #FAC731",
"+X c #FDCB33",
"@X c #FDCD3B",
"#X c #F6C833",
"$X c #FFD03A",
"%X c #C0AB48",
"&X c #F0BF40",
"*X c #DFC44A",
"=X c #FCCE43",
"-X c #FBCE48",
";X c #FDD245",
":X c #FFD54F",
">X c #FFDD4E",
",X c #FBDA4A",
"<X c #F2D64B",
"1X c #FFD652",
"2X c #FFDE51",
"3X c #FEDF52",
"4X c #FEDB53",
"5X c #ECC44D",
"6X c #FEE055",
"7X c #FEE354",
"8X c #FCE659",
"9X c #9DA3B3",
"0X c #A0A2A6",
"qX c #CBCBCB",
"wX c gray84",
"eX c white",
/* pixels */
"                                    + 9 m n i i 9 : = @ . . . . . . . . . . X # 5 9 r m ' M [ ' M ' ' ' z a a 5                 ",
"                                    o = > > % % o . . . . . . . . . . . X % : q n k m ' m M n m m m m ] ' ' ' 9 @               ",
"                                    $ X X . . . . . . . . . . . . . . # > e a ' ' M m m n m n n n m n m m ' ' 9 o               ",
"                                    * + . . . . . . . . . . . . o = 4 q n m ' M M m m m m m m n m s M M ' n i =                 ",
"                                      + . . . . . . . . . X = = 9 i n ] m ' m m n n m n m n n m m ' ' M d r < X                 ",
"                                      . . X X . o . @ - - q e k m ' ' m m m m m m n n m m n M M ' ' z e 8 %                     ",
"                                    o @ - 4 4 : 8 9 e p a m ' M ' m m n n m n n m n m m m M ] n d r 4 <                         ",
"                                    = 8 r s s m m m [ x ' ' m M m m n m m n m m n n M M m ' p e t h B %X                        ",
"                                X - r p i m ' M m ' m m m n m n m m n m m m m n m m ' z a 9 w N 1.2.4X,X                        ",
"                              @ 5 a ] n a m m m m n m n m n n m m n z m m m n m m ' n e 2 g <.*X3X>X3X>X3X                      ",
"                            o 4 a ' ' m m m n n m m m m m x m n n m m m m m m ' m n q 3 l >.!.7X6X3X3X3X>X                      ",
"                          X : s ' m m m m m m m n m n m n m m n m n m m m m m m z q < f l.].[.+X6X3X3X3X>X6X                    ",
"                          $ q ' m m m m m n m n m m n m m n m m m n n n m ' m s 9 7 C 6 l..X[.[.,X6X3X3X>X>X                    ",
"                        + # z ' m m m n m m n m n m m n m m m n m n n ' ' m p 0 7 C wX9Xf XX[.[.[.3X3X3X3X>X                    ",
"                        o # z ' m n m s n m n m m n m n z m n m n n m ' n i 4 @ V wXeX0X& '. X|.[.;X4X7X3X3X6X                  ",
"                          - a ' n m m m m n m n m m n m m m n m m ' ' s q 4 O + 7 qXqX6 o !.{.[.[.+X4X3X6X4X3X                  ",
"                          5 a ] n n n n m n n m n m n n m n ' M M ' p 0 w y . . . O O . & '. X{.[.[.7X8X7X7X8X                  ",
"                          * q M ] m m n n m n n m n m ' M ' M m k r : f ,.:.X . . . . . h XX[.|.{..X!.k.k.k.<X                  ",
"                            4 i ' ' M ' M m ' M ' ' m ' x k r 0 l w W r.'.oXc . . . . o P..X[. X X7.=.f.D.g.k.                  ",
"                              4 r s m M M ] m M x a z 9 t g g E ;.M.W.[.[.{.oXc @ X 3 >.XX[..X}.&.=.A.Z.F.E.D.O.                ",
"                              % , 1 4 e 9 q q 0 t y l c E M.r.[.].[.{.[. X[. XXXI.l.oXXX X XY.$.X.f.Z.Z.g.Z.F.F.d.              ",
"                                    + $ % $ * v v ,.r.L.].[. X[.[.[.|.[.[.[.[.[..XXX].Y.y.*.X.$.$.&.Z.Z.Z.Z.Z.D.E.f.=.          ",
"                                              R.Y.W.{.[.|.[.|.[.[.[.[.[.[.[.[.|. X}.! Y ..$.%.%.$.$.$.d.g.A.A.Z.Z.G.F.Z.f.C.H.C.",
"                                                c.^.{.|.[.[.[.[.[.|.[.[.|.[.[.|.|. XS L  ...X.$.%.%.$.$.$.&.-.=.f.f.g.Z.Z.Z.s.o.",
"     X|.[.+X#X                                  W.W.{.{.[.[.[.{.[.|.[.[.|.[.[.|.[..Xr.u H U | ..o.$.$.$.$.$.$.$.$.$.%.%.O. .H   ",
"    [.[.[.[.[.{.|.Q.                            W.T.(. X[.|.|.[.{.[.[.[.{.[.[.[.[.|..Xp.F Z D J P U !  .......o. .! U K D D H   ",
"  -X].[.[.|.{.[.[.{./.T.U.N.                      c.T.[.[.[.[.[.[.[.[.|.[.[.[.[.[.[.[..X].e.L F D D D G H G D G D A A D T _     ",
"   X[.[.[.[.[.[.[.|.{. X].~.U.p.N.R.V.            _.b.~.{.{.[.[.[.|.[.[. X[.[.|.[.[.[.[..X.Xj.#.o.! U U P I T P R {             ",
"  |.[.[.[.[.[.|.[.[.[.[. X X{.^.T.U.p.u.q.3.9.m.    ~.W.). X{.{.|.[.[.|.[.[.[.|.[.[. X X[.U.U.N.5.6.5.6.3.                      ",
"  [.[.[.[.[.[.[.[.[.[.[.[.[.[.{.{.[.(.).T.U.t.3.+.( +.p.T.(.{.{.[.[.[.[.[.[.[.[.[.[.{.|.K.N.S.U.K.e.+.w.                        ",
"  [.[.[.{.[.[.[.[.[.[.[.[.[.[.[.[.{.{.{.{.{.|.}.~.Y.a.5.e.p.b.].|.{.[.[.[.[.[.[.|. X(.N.N.U.S.j.S.U.v.                          ",
"#X[.[.[.[.[.[.[.[. X|.].].[.[.[.{.[.[.|.[.[.[. X X X X X}.~.W.W.].[.[.|.[.[.|. X|.T.p.N.N.N.S.v.Y.~.c.5X                        ",
"].[.[. X[.[.|.[.[.|.].[.OXOX|.]././.[.].[.[.[.[.[.[.[.[.|. X X X|.[.[.[.[.[.[.].U.U.v.U.Y.T.T.W.W.~.T.c.W.                      ",
"{.[.[.[.|.[.[.[.{.~.^.+X1X1X1X;X=X@X}.|./.[.].[.[.[.[.[.[.[.[.[.[.[.|.[.{.|.[.[.W.T.T.W.~.W.~.T.W.T.~.T.T.c.                    ",
"[.[.[.[.[.[.|.[.{.U.^.@X1X1X:X1X1X1X1X:X;X@X+X}.].[./.[.[.[.[.[.|.[.[.[.[.|.|.[.[.T.T.T.T.W.T.W.T.~.T.T.W.W.                    ",
" X[.[.|.[.[.[.{.].U.n.@X1X1X:X:X:X:X1X1X1X1X1X1X;X=X@X X].[.[.].[.[.[.[.[.[.[.[.|.|.W.T.W.W.W.W.T.T.T.~.W.W.c.                  ",
"[.|.[.[.[.|.{.{.^.S.b.+X1X:X:X:X:X:X:X:X:X:X:X:X1X1X1X1X:X;X@X X|.[.[.[.[.[.[.[.[.[.].~.T.~.T.T.~.T.W.W.T.W.T.W.                ",
"[.[.|.[.[.[.[.[.W.j.c. X:X1X1X:X:X:X:X:X1X:X:X:X1X:X:X1X1X1X1X1X1X;X@X+X X[.[.[.[.[.[.|.^.T.T.T.W.T.W.T.W.W.W.c.Q.              ",
"[. X[.[.[.[.[.].T.S.z.{.=X1X:X:X:X:X:X:X:X:X:X:X:X:X:X:X:X:X:X:X1X1X1X1X1X:X@X+X X[.[.[.[.[.^.~.T.T.Y.T.T.T.T.W.|.              ",
"[.|.[.[.[.[.[.^.T.Y.a.{.@X1X:X:X:X:X:X:X:X:X:X:X:X:X:X1X:X:X:X:X:X:X:X:X:X1X1X1X1X:X X[.[.[. X X[./.^.^.~.^.^.(.{.|.            ",
"|.[.[.[.[.[.{.~.T.T.e.^.{.:X1X1X:X:X:X:X:X:X:X:X:X:X:X:X:X:X:X:X:X:X:X:X:X:X:X:X1X1X X[.{.[.|.[.{.{. X X{. X X{.[.|.            ",
" X[.|.|.[.[. X~.W.T.u.x.{.@X1X1X1X:X1X:X:X:X:X:X:X:X:X1X:X:X1X:X:X:X:X:X:X:X:X:X1X@X[.|.[.[.[.[.[.[.[.[.[.[.[.[.[.[.            ",
"OX[.[.[.|.|.|.~.W.T.N.t.{.|.,X1X:X:X:X:X:X:X:X:X:X:X:X:X:X:X:X:X:X:X:X1X:X:X1X1X1X[.[.[.[.|.|.[.[.|.|.[.[.|.|.[.[.[.+X          ",
"|.|.[.[.[.|. XW.T.T.U.4.b.{. X1X:X:X:X:X:X1X:X:X:X:X:X1X:X:X:X:X:X:X:X:X:X:X:X1X@X[.[.[.[.[.[.[.[.[.[.[.[.[.[.[.[.[. X          ",
";X`.[.[.|.[.|.~.T.W.U.u.5.{.[.$X1X1X:X1X:X:X:X:X:X:X:X:X:X:X:X:X:X:X:X:X:X:X1X1X|.[.|.[.[.[.[.[.[.[.[.[.[.[.[.[.[.[.|.          ",
"  [.[.[.[.[.|.~.T.W.T.U.3.x..X`.+X1X1X1X:X:X:X:X:X:X:X:X:X:X:X:X:X:X:X:X:X:X1X X[.[.{.[.|.[.|.{.[.|.|.[.[.|.|.[.[.|.[.          ",
"  |.[.[.[.[. X^.T.W.W.U.i.6.]. X[.OX1X1X:X:X:X:X:X:X:X1X:X:X:X:X:X:X1X:X:X1X=X[.[.[.[.[.[.[.|.[.[.[.[.[.[.[.[.[.[.[.[.          ",
"   X[.|.[.[.[.(.T.W.W.U.U.4.5. X[.[. X;X1X1X:X1X:X:X:X:X:X:X:X:X:X:X:X1X1X@X[.[.[.[.[.[.[.[.[.[.[.|.[.{.[.[. X[.[.[.|.          ",
"  @X[.[.[.[.{.[.T.T.W.T.U.S.+.t..X X[.[.OX;X1X1X1X1X1X1X:X1X:X:X1X1X1X:X+X[.[.[.[.[.[.[.[.|.{.[.[.[.[.[.[.[.[.[.[.[.|.          ",
"    [.[.|.[.[. X~.W.W.W.U.U.p.( a..X X[.[.[. X+X;X1X1X:X:X1X1X1X:X;X@X[.[.[.|.{.[.|.[.{.[.[.[.|.|.[.[.|.[. X[.|.[.[.@X          ",
"    [.[.[.[.[.{.(.T.W.W.T.N.Y.u.( a..X{.[.[.[.[.[.[.|. X XOXOX X|.[.[.[.[.[.[.[.[.|.[.|.[.[.[.[.[.[.[.{.[.[.[.[.[.[.=X          ",
"      ].[.|.[.{.{.W.T.W.W.Y.N.U.t.( q.[.{.{.[.[.[.[.[.[.[.[.[.[.[.[.[.[.[.[.|.[.[.[.[.[.[.|.[.[.[.[.|.[.[.[.|.[.[.[.            ",
"      |.[.[.|.[.{./.T.T.W.~.U.p.Y.u.( 3.W..X X[.[.[.[.[.[.[.[.[.[.[.|.[.[.[.|.[.[.[.[.[.|.[.[.|.|.[.[.|.[.[.[.[.[.|.            ",
"      =X`.|.[.[.[.[.^.T.W.W.~.U.S.U.p.@.( z. X.X[.[.[.[.|.[.[.|.[.[.[.[.[.[.[.[.[. X[.[.[.[.[.[.[.[.[.[.[.[.[.|.[.+X            ",
"        {.[.[.[.[.[.{.^.T.T.W.W.U.N.U.U.e.( 4.b. X X{.[.[.[.[.[.|.[.[.|.[.|.|.[.[.|.|.[.[.{.[.[.[.{.[.[.|.[.[.[.].              ",
"        5X`.{.[.[.[.[.{.].T.T.T.~.Y.K.K.U.z.3.( 8.^..X X X[.[.[.{.[.[.[.{.[.[.[.[.[.[.[.|.[.[.|.|.[.[.|.[.{.|.[.{.              ",
"          Y.]. X|.[.[.[.{. X(.~.T.T.T.Y.S.S.U.i.4.) t.b.{. X X[.[.[.|.[.[.|.[.[.[.|.[.[.|.[.[.[.[.|.[.[.[.[.|.[.                ",
"            U.(. X{.{.{.[.[. X[.[.]./.^.~.T.Y.Y.Y.K.e.3.8.x.].{.|.[.[.[.[.[.[.[.[.[.[.[.[.[.[.[.[.[.[.|.[.[.{.}.                ",
"              p.T.(. X{.{.{.[.[.{. X|. X X[. X|.[.}.[.).W.b.~.[.[.[.[.[.|.[. X[.|.[.[.[.[.[.[.|.[.[.{.[.[. X].                  ",
"                p.U.U.W.].[.{. X X{. X X{. X{.{.{.{. X{. X X X|.{.[. X[.[.{.[.[.{.[.[. X X[.{.[.{. X{.{. Xn.K.                  ",
"                  t.U.U.S.U.Y.T.W.W.Q.).^.(./.].[.|.[.}.|.[.|.].|. X|. X X X{.{. X X|. X|.|.[.|.[.].(.~.v.B.                    ",
"                    ) q.p.S.S.U.S.U.U.U.U.U.U.Y.K.U.U.R.Y.Y.Y.Y.Y.Y.Y.T.Y.Y.Y.Y.Y.T.Y.Y.Y.R.U.Y.U.U.U.i.B.                      ",
"                      ` ) +.+.@.@.0.0.0.0.0.4.0.0.4.4.0.4.9.0.4.0.9.9.0.0.9.9.9.9.9.@.@.3.0.0.3.@.0.@.                          ",
"                            } } ` ) ( / ~ ( / / / ( / / ( / ( / / / ( ( ( ( ( ( ( ) ) ` / / ^ ` m.                              "
};
