/* XPM */
static char *_6ad04e9813a4232d1c5afa7024ca426R2M4w0U0HiBJXhOE[] = {
/* columns rows colors chars-per-pixel */
"64 64 141 2 ",
"   c None",
".  c #020202",
"X  c #0C0C0C",
"o  c #131313",
"O  c #1C1C1C",
"+  c #232323",
"@  c #2D2D2D",
"#  c #343434",
"$  c #383737",
"%  c #3A3A3A",
"&  c #434343",
"*  c #484747",
"=  c #4C4C4C",
"-  c #545454",
";  c #5C5C5C",
":  c #646464",
">  c #6C6C6C",
",  c #757575",
"<  c #7C7C7C",
"1  c #BC0F0F",
"2  c #A61515",
"3  c #AC1515",
"4  c #B41414",
"5  c #BB1414",
"6  c #BF1A1A",
"7  c #BF2D2D",
"8  c #C50505",
"9  c #CE0101",
"0  c #C60C0C",
"q  c #CD0E0E",
"w  c #D00606",
"e  c #D10D0D",
"r  c #C31212",
"t  c #CC1111",
"y  c #C51A1A",
"u  c #CD1C1C",
"i  c #D11111",
"p  c #D21C1C",
"a  c #C02424",
"s  c #CB2424",
"d  c #CA2F2F",
"f  c #D22222",
"g  c #D42B2B",
"h  c #C33232",
"j  c #CC3939",
"k  c #D43434",
"l  c #D93131",
"z  c #D63B3B",
"x  c #D83B3B",
"c  c #C74545",
"v  c #CA4040",
"b  c #D34242",
"n  c #D94848",
"m  c #D55757",
"M  c #DF5757",
"N  c #DC5B5B",
"B  c #DD6767",
"V  c #DC6A6A",
"C  c #DD7575",
"Z  c #DB7778",
"A  c #DB7878",
"S  c #E07474",
"D  c #858585",
"F  c #8C8C8C",
"G  c #959595",
"H  c #9C9C9C",
"J  c #A5A5A5",
"K  c #ABABAB",
"L  c #B3B3B3",
"P  c #BCBCBC",
"I  c #D88585",
"U  c #DC8C8C",
"Y  c #DD9696",
"T  c #DD9090",
"R  c #E18181",
"E  c #E38080",
"W  c #E28282",
"Q  c #E58686",
"!  c #E48B8B",
"~  c #E38F8F",
"^  c #E39090",
"/  c #E59696",
"(  c #E39595",
")  c #E59898",
"_  c #E69999",
"`  c #E79A9A",
"'  c #E19D9D",
"]  c #E69E9E",
"[  c #E99B9B",
"{  c #E5A09F",
"}  c #E1A1A1",
"|  c #E7A6A6",
" . c #E4A1A1",
".. c #E8A7A7",
"X. c #E3ADAD",
"o. c #E7ACAC",
"O. c #EBAEAE",
"+. c #EBB1B1",
"@. c #E6BDBD",
"#. c #E9B9B9",
"$. c #E8BEBE",
"%. c #ECBDBD",
"&. c #C5C5C5",
"*. c #CCCCCC",
"=. c #D3D3D3",
"-. c #DBDBDB",
";. c #EECDCD",
":. c #EDDDDD",
">. c #F1D6D6",
",. c #F1D9D9",
"<. c #E4E4E4",
"1. c #EEE5E5",
"2. c #EFE8E8",
"3. c #EEEEEE",
"4. c #F0E3E3",
"5. c #F0E4E4",
"6. c #F2E5E5",
"7. c #F1E9E9",
"8. c #F3E9E9",
"9. c #F2E9E9",
"0. c #F3EBEB",
"q. c #F4EBEB",
"w. c #F2EDED",
"e. c #F3EDED",
"r. c #F4F1F1",
"t. c #F4F2F2",
"y. c #F4F3F3",
"u. c #F5F3F3",
"i. c #F4F4F4",
"p. c #F5F4F4",
"a. c gray96",
"s. c #F5F6F6",
"d. c #F5F5F5",
"f. c #F5FAFA",
"g. c #F4FEFE",
"h. c #F5FEFE",
"j. c #F6FEFE",
"k. c #F7FEFE",
"l. c #F6FFFF",
"z. c #F5FBFB",
"x. c #FCFCFC",
/* pixels */
"                  e e e e e e e e e e e e e e e e e q q q e e e e e e e e e e e e e e e e e e e e e e e e e e e e e e e e e e e ",
"                e e e e e e e e e e e e e e e e e q q e e e e e e e e e e e e e e e e e e e e e e e e e e e e e e e e e e e e e ",
"              i i q e e e e e e e e e e e e e e q e e e e e e e e e e e e e e e e e e e e e e e e e e e e e e e e e e e e e e e ",
"              e e t e e e e e e e e e e e e e e e e e e e e e e e e e e e e e e e e e e e e e e e e e e e e e e e e e e e e e e ",
"            i e q 1 e e e e e e e e e e e e e e e e e e e e e e e e e e e e e e e e e e e e e e e e e e e e e e e e e e e e e e ",
"          e i e e 3 0 e e e e e e e e e e e w e q 9 e e e e e e e e e e w e q e q e e e q e e e e e e e e e e e e e e e e e e e ",
"          e i i e 2 5 q e e e e e e e e e e g z z k e t i e e i e e p V S b e e i i e i i e e e e e e e e e e e e e e e e e e e ",
"        e i e e e 2 4 q q e e e e q e e e e S e.6.C e 9 9 9 w 9 9 e f $.z.Y 9 9 9 9 9 9 9 w e e e e e e e e e e e e e w e e e e ",
"      i e i i e e 2 3 r t i e e e e e e e q g a.q.f p B B b k V B u e S r.U b V V m d V V g q e e e e e e e e e e e e e e e e e ",
"      e i i e e e 2 3 4 5 r q q q e e e e i k i.q.g i %.x./ k r.g.b e ! a.U c 2.z.U 7 1.:.g e e e e e e e e e e e e e e e e e e ",
"    e e e e e i i 3 3 5 5 5 r r r r r t t e k a.q.g e ! r.^ 9 ,.r.x e Q r.Y 5 I a.Y h 1.n 9 e e e e e e e e e e e e e e e e e e ",
"  i i i e i q 4 4 2 4 5 5 5 5 5 5 r r r r r z a.q.g i / r.~ e ,.r.l e R r.U 6 a 8.1.@.+.e e e e e e e e e e e e e e e e e e e e ",
"i t r 4 3 2 2 3 3 4 5 5 r r r r r r r r r r j r.q.d r C f.;.C r.k.M p | z.o.y 5 Y p.1.u e e e e e e e e e e e e e e e e e e e e ",
"t r 0 r t t r t r r r r q 0 t q t q q 0 t q d a.q.s r y U { U U ' C k ) ) ) p 0 v w.C e q e e e e e e e e e e e e e e q e e e e ",
"i e i i e e i e i i q e q e t i e i e q t u | 8.R e i t 9 8 8 0 0 0 0 8 0 8 N O.#.X.u q i e i i e e e e e i e e e i q i e e e e ",
"w 9 9 w 9 9 9 9 w 9 w 9 w w 9 w 9 w 9 w w q N z 9 w w 9 w 9 w 9 9 9 9 0 8 8 j ^ Z u 9 9 9 9 9 9 9 w w w 9 w 9 w 9 9 9 9 9 8 9 8 ",
" .[ ` ` _ ` [ [ ]  .]  .{  .{ { { { { { { { ^ /  . . .[  . . . . . . . . . .' ' ( '  .{  .'  . .]  . . . . . . . . . . .} } } } ",
"x.x.f.f.f.f.z.z.z.z.z.z.z.z.f.f.f.f.f.f.f.f.k.z.z.z.z.z.f.f.f.f.z.f.z.f.z.f.f.f.z.z.z.f.z.g.z.f.f.f.z.z.z.f.f.z.f.g.z.f.z.z.z.z.",
"r.a.r.a.i.i.a.a.i.i.i.i.p.p.p.p.p.p.i.i.i.i.p.p.i.i.a.a.a.p.p.i.a.a.i.i.a.p.i.a.a.a.i.i.i.a.a.a.r.a.a.a.a.a.a.a.a.a.r.i.i.i.i.i.",
"r.a.a.a.i.i.i.i.i.i.i.i.p.p.p.p.p.p.i.i.i.i.p.p.i.i.r.a.a.a.p.i.p.a.i.p.p.p.i.i.i.i.i.i.i.i.i.i.a.i.i.i.i.i.r.i.i.i.i.i.i.i.i.i.",
"a.a.a.a.a.a.a.a.a.a.a.a.a.a.a.a.a.a.a.a.p.a.a.a.a.a.a.a.a.a.a.a.a.a.a.a.a.a.a.a.a.a.a.a.a.a.a.a.a.a.a.a.a.a.a.a.a.a.a.a.i.a.a.a.",
"a.a.a.a.a.a.a.a.a.a.a.a.a.a.a.a.a.a.a.a.a.a.a.a.a.a.a.a.a.a.a.a.a.a.a.a.a.a.a.a.a.a.a.a.a.a.a.a.a.a.a.a.a.a.a.a.a.a.a.a.i.i.a.a.",
"a.a.a.a.a.a.a.a.a.a.a.a.a.a.a.a.a.a.a.a.a.a.a.a.a.a.a.a.a.a.a.a.a.a.a.a.a.a.a.a.a.a.a.a.a.a.a.a.a.a.a.a.a.a.a.a.a.a.a.a.a.a.a.a.",
"a.a.a.a.a.a.a.a.a.a.a.a.a.a.a.a.a.a.a.a.a.a.a.a.a.a.a.a.a.a.a.a.a.a.a.a.a.a.a.a.a.a.a.a.a.a.a.a.a.a.a.a.a.a.a.a.a.a.a.a.a.a.a.a.",
"a.a.a.a.a.a.a.a.a.a.a.a.a.a.a.a.i.i.3.r.r.r.i.i.a.i.i.a.a.a.a.a.a.a.a.a.a.a.a.i.r.r.r.r.r.i.i.i.a.a.a.a.a.a.a.a.a.a.a.a.a.a.a.a.",
"a.a.a.a.a.a.a.a.a.a.a.a.a.a.r.r.r.f.x.x.x.x.k.r.r.i.a.a.a.a.a.a.a.a.a.a.i.r.3.r.z.k.x.x.x.k.a.r.r.r.a.a.a.a.a.a.a.a.a.a.a.a.a.a.",
"a.a.a.a.a.a.a.a.a.a.a.a.a.a.r.f.x.-.P K J L *.i.x.a.i.i.a.a.a.a.a.a.a.i.i.i.x.k.-.&.P P P *.<.x.x.i.a.a.a.a.a.a.a.a.a.a.a.a.a.a.",
"a.a.a.a.a.a.a.a.a.a.a.a.a.a.a.P > @ O X X o + = H 3.f.i.a.a.a.a.a.a.p.a.z.:.F ; @ + o o O + $ : K 3.f.i.a.a.a.a.a.a.a.a.a.a.a.a.",
"a.a.a.a.a.a.a.a.a.a.a.i.a.r.: o . . . . . . . . X # -.a.a.a.a.a.a.a.a.f.G + . . . . O @ X . . . X $ =.a.i.a.a.a.a.a.a.a.a.a.a.a.",
"a.a.a.a.a.a.a.a.a.a.a.i.3.& . . . . . . . . . . . . O =.a.a.a.a.a.a.w., . . . . o K r.r.2.* . . . . O =.i.i.a.a.a.a.a.a.a.a.a.a.",
"a.a.a.a.a.a.a.a.a.a.i.a.> . . . . . . . . . . . . . . - a.a.a.a.a.a.H . . . . . > f.f.a.z.-.o . . . . & i.i.a.a.a.a.a.a.a.a.a.a.",
"a.a.a.a.a.a.a.a.a.a.a.=.. . O ; F G , $ . . . . . . . . =.a.a.a.a.r.% . . . . . : i.r.i.i.r.@ . . . . . 3.a.a.a.a.a.a.a.a.a.a.a.",
"a.a.a.a.a.a.a.a.a.a.a.= . % &.i.x.x.x.-.: . . . . . . . L a.a.a.a.<.+ . . . . . O &.z.r.r.a.$ . . . . . <.a.a.a.a.a.a.a.a.a.a.a.",
"a.a.a.a.a.a.a.a.a.a.r.< * =.k.i.r.r.r.f.2.+ . . . . . . &.a.a.a.i.3.+ . . . . . . # *.x.a.r.+ . . . . O r.a.a.a.a.a.a.a.a.a.a.a.",
"a.a.a.a.a.a.a.a.a.a.a.a.2.f.r.i.i.i.i.r.i.- . . . . . X 3.a.a.a.a.a.- . . . . . . . O H 3.&.X . . . . G a.a.a.a.a.a.a.a.a.a.a.a.",
"a.a.a.a.a.a.a.a.a.a.a.a.f.r.a.a.a.a.f.i.3.= . . . . . < a.a.a.a.a.i.P o . . . . . . . . $ @ . . . X D a.a.a.a.a.a.a.a.a.a.a.a.a.",
"a.a.a.a.a.a.a.a.a.a.i.i.a.r.a.a.a.a.a.i.a.O . . . . + <.i.a.a.a.a.i.a.J o . . . . . . . . . . . - P z.p.a.a.a.a.a.a.a.a.a.a.a.a.",
"a.a.a.a.a.a.a.a.a.a.a.a.a.a.a.a.a.a.i.i.K . . . . . L a.a.a.a.a.a.a.i.x.L % . . . . . . . . . . : -.x.r.a.a.a.a.a.a.a.a.a.a.a.a.",
"a.a.a.a.a.a.a.a.a.a.a.a.a.a.a.a.a.a.i.f.$ . . . . G x.a.a.a.a.a.a.a.a.r.x.=.+ . . . . . . . . . . @ P z.r.a.a.a.a.a.a.a.a.a.a.a.",
"a.a.a.a.a.a.a.a.a.a.a.a.a.a.a.a.r.r.f.D . . . . G f.r.i.a.a.a.a.a.i.a.a.F $ X . . . . . . . . . . . O &.a.a.a.a.a.a.a.a.a.a.a.a.",
"a.a.a.a.a.a.a.a.a.a.a.a.a.a.a.a.i.z.L . . . X G f.r.a.r.f.a.a.a.a.i.<.; . . . . & L = . . . . . . . . @ r.u.u.s.a.a.a.a.a.a.a.a.",
"a.a.a.a.a.a.a.a.a.a.a.a.a.a.r.r.x.L o . . + K z.i.r.r.f.r.a.a.a.a.r.; . . . . . L z.r.D o . . . . . . . P s.s.s.a.a.a.a.a.a.a.a.",
"a.a.a.a.a.a.a.a.a.a.a.a.a.a.r.z.P O . . # &.s.r.r.r.z.&.; P a.a.i.&.X . . . . X 2.a.s.x.H . . . . . . . D a.s.u.a.a.a.a.a.a.a.a.",
"a.a.a.a.a.a.a.a.a.a.a.a.a.i.k.P + . . : <.x.x.x.x.x.=.# . F a.a.i.D . . . . . + z.r.a.r.k.> . . . . . . , a.s.s.a.a.a.a.a.a.a.a.",
"a.a.a.a.a.a.a.a.a.a.a.r.a.x.K + . . . ; ; ; ; ; ; = @ . o &.a.a.a.D . . . . . @ i.i.a.i.r.-.X . . . . . H s.s.s.a.a.a.a.a.a.a.a.",
"a.a.a.a.a.a.a.a.a.a.a.a.z.K o . . . . . . . . . . . . . @ <.a.a.a.L X . . . . . 3.i.a.a.r.<.O . . . . X <.a.s.s.a.a.a.a.a.a.a.a.",
"a.a.a.a.a.a.a.a.a.a.a.x.J o . . . . . . . . . . . . . . : f.a.a.a.3.- . . . . . H a.x.x.f.J . . . . . F a.a.a.a.a.a.a.a.a.a.a.a.",
"a.a.a.a.a.a.a.a.a.a.w.J o . . X . X X . X . X . X . X . H a.a.a.a.a.=.& . . . X + G =.*.J O . . . X D s.a.a.a.a.a.a.a.a.a.a.a.a.",
"a.a.a.a.a.a.a.a.a.a.&.. . . . . . . . . . . . . . . . . =.i.i.i.a.i.f.2.> @ . . . . . . . . . o = K x.a.i.a.a.a.a.a.a.a.a.a.a.a.",
"a.a.a.a.a.a.a.a.a.a.-.F D D D D D F D D D D D D D D D D r.a.i.i.a.i.r.a.x.*.F > - * & & - : D L r.x.r.a.a.a.a.a.a.a.a.a.a.a.a.a.",
"a.a.a.a.a.a.a.a.a.a.z.x.x.x.x.x.x.x.x.x.x.x.x.x.x.x.x.x.i.a.a.a.a.a.a.i.r.k.x.x.r.<.<.<.2.k.x.x.i.r.a.a.a.a.a.a.a.a.a.a.a.a.a.a.",
"a.a.a.a.a.a.a.a.a.a.r.w.r.3.3.r.3.3.r.3.r.3.r.3.r.3.3.r.a.a.a.a.a.a.a.a.a.r.3.r.s.z.z.f.a.r.3.r.i.a.a.a.a.a.a.a.a.a.a.a.a.a.a.a.",
"a.a.a.a.a.a.a.a.a.a.a.a.a.a.a.a.a.a.a.a.a.a.a.a.a.a.a.a.a.a.a.a.a.a.a.a.a.a.a.a.r.r.a.r.i.i.i.a.i.i.a.a.a.a.a.a.a.a.a.a.a.a.a.a.",
"a.a.a.a.a.a.a.a.a.a.a.a.a.a.a.a.a.a.a.a.a.a.a.a.a.a.a.a.a.a.a.a.a.a.a.a.a.a.a.a.a.a.a.a.a.a.i.a.a.a.a.a.a.a.a.a.a.a.a.a.a.a.a.a.",
"a.a.a.a.a.a.a.a.a.a.a.a.a.a.a.a.a.a.a.a.a.a.a.a.a.a.a.a.a.a.a.a.a.a.a.a.a.a.a.a.a.a.a.a.a.a.a.a.a.a.a.a.a.a.a.a.a.a.a.a.a.a.a.a.",
"a.a.a.a.a.a.a.a.a.a.a.a.a.a.a.a.a.a.a.a.a.a.a.a.a.a.a.a.a.a.a.a.a.a.a.a.a.a.a.a.a.a.a.a.a.a.a.a.a.a.a.a.a.a.a.a.a.a.a.a.a.a.a.a.",
"a.a.a.a.a.a.a.a.a.a.a.a.a.a.a.a.a.a.a.a.a.a.a.a.a.a.a.a.a.a.a.a.a.a.a.a.a.a.a.a.a.a.a.a.a.a.a.a.a.a.a.a.a.a.a.a.a.a.a.a.a.a.a.a.",
"a.a.a.a.a.a.a.a.a.a.a.a.a.a.a.a.a.a.a.a.a.a.a.a.a.a.a.a.a.a.a.a.a.a.a.a.a.a.a.a.a.a.a.a.a.a.a.a.a.a.a.a.a.a.a.a.a.a.a.a.a.a.a.a.",
"a.a.a.a.a.a.a.a.a.a.a.a.a.a.a.a.a.a.a.a.a.a.a.a.a.a.a.a.a.a.a.a.a.a.a.a.a.a.a.a.a.a.a.a.a.a.a.a.a.a.a.a.a.a.a.a.a.a.a.a.a.a.a.a.",
"a.a.a.a.a.a.a.a.a.a.a.a.a.a.a.a.a.a.a.a.a.a.a.a.a.a.a.a.a.a.a.a.a.a.a.a.a.a.a.a.a.a.a.a.a.a.a.a.a.a.a.a.a.a.a.a.a.a.a.a.a.a.a.a.",
"a.a.a.a.a.a.a.a.a.a.a.a.a.a.a.a.a.a.a.a.a.a.a.a.a.a.a.a.a.a.a.a.a.a.a.a.a.a.a.a.a.a.a.a.a.a.a.a.a.a.a.a.a.a.a.a.a.a.a.a.a.a.a.a.",
"a.a.a.a.a.a.a.a.a.a.a.a.a.a.a.a.a.a.a.a.a.a.a.a.a.a.a.a.a.a.a.a.a.a.a.a.a.a.a.a.a.a.a.a.a.a.a.a.a.a.a.a.a.a.a.a.a.a.a.a.a.a.a.a.",
"a.a.a.a.a.a.a.a.a.a.a.a.a.a.a.a.a.a.a.a.a.a.a.a.a.a.a.a.a.a.a.a.a.a.a.a.a.a.a.a.a.a.a.a.a.a.a.a.a.a.a.a.a.a.a.a.a.a.a.a.a.a.a.a.",
"a.a.a.a.a.a.a.a.a.a.a.a.a.a.a.a.a.a.a.a.a.a.a.a.a.a.a.a.a.a.a.a.a.a.a.a.a.a.a.a.a.a.a.a.a.a.a.a.a.a.a.a.a.a.a.a.a.a.a.a.a.a.a.a."
};